/* XPM */
static const char *rotating_player_xpm[] = {
/* width height num_colors chars_per_pixel */
"20 8 2 1",
/* colors */
". c None",    // Transparent color
"X c #FFFF00",   // Yellow color
/* pixels */
"XXXXXXXX............",
"XXXXXXXX............",
"XXXXXXXX............",
"XXXXXXXXXXXXXXXXXXXX",
"XXXXXXXXXXXXXXXXXXXX",
"XXXXXXXX............",
"XXXXXXXX............",
"XXXXXXXX............",
};
