/* XPM */
static char *_3b6317c95634be5b5c1295be7fa782dv2Dt3OwN1oZjm8Sm[] = {
/* columns rows colors chars-per-pixel */
"32 32 256 2 ",
"   c black",
".  c #010101",
"X  c #020202",
"o  c gray1",
"O  c #040404",
"+  c gray2",
"@  c #060606",
"#  c #070707",
"$  c gray3",
"%  c #090909",
"&  c gray4",
"*  c #0B0B0B",
"=  c #0C0C0C",
"-  c gray5",
";  c #0E0E0E",
":  c gray6",
">  c #101010",
",  c #111111",
"<  c gray7",
"1  c #131313",
"2  c gray8",
"3  c #151515",
"4  c #161616",
"5  c gray9",
"6  c #181818",
"7  c #191919",
"8  c gray10",
"9  c #1B1B1B",
"0  c gray11",
"q  c #1D1D1D",
"w  c #1E1E1E",
"e  c gray12",
"r  c #202020",
"t  c gray13",
"y  c #222222",
"u  c #232323",
"i  c gray14",
"p  c #252525",
"a  c gray15",
"s  c #272727",
"d  c #282828",
"f  c gray16",
"g  c #2A2A2A",
"h  c gray17",
"j  c #2C2C2C",
"k  c #2D2D2D",
"l  c gray18",
"z  c #2F2F2F",
"x  c gray19",
"c  c #313131",
"v  c #323232",
"b  c gray20",
"n  c #343434",
"m  c #353535",
"M  c gray21",
"N  c #373737",
"B  c gray22",
"V  c #393939",
"C  c #3A3A3A",
"Z  c gray23",
"A  c #3C3C3C",
"S  c gray24",
"D  c #3E3E3E",
"F  c #3F3F3F",
"G  c gray25",
"H  c #414141",
"J  c gray26",
"K  c #434343",
"L  c #444444",
"P  c gray27",
"I  c #464646",
"U  c gray28",
"Y  c #484848",
"T  c #494949",
"R  c gray29",
"E  c #4B4B4B",
"W  c #4C4C4C",
"Q  c gray30",
"!  c #4E4E4E",
"~  c gray31",
"^  c #505050",
"/  c #515151",
"(  c gray32",
")  c #535353",
"_  c gray33",
"`  c #555555",
"'  c #565656",
"]  c gray34",
"[  c #585858",
"{  c gray35",
"}  c #5A5A5A",
"|  c #5B5B5B",
" . c gray36",
".. c #5D5D5D",
"X. c gray37",
"o. c #5F5F5F",
"O. c #606060",
"+. c gray38",
"@. c #626262",
"#. c gray39",
"$. c #646464",
"%. c #656565",
"&. c gray40",
"*. c #676767",
"=. c #686868",
"-. c DimGray",
";. c #6A6A6A",
":. c gray42",
">. c #6C6C6C",
",. c #6D6D6D",
"<. c gray43",
"1. c #6F6F6F",
"2. c gray44",
"3. c #717171",
"4. c #727272",
"5. c gray45",
"6. c #747474",
"7. c gray46",
"8. c #767676",
"9. c #777777",
"0. c gray47",
"q. c #797979",
"w. c gray48",
"e. c #7B7B7B",
"r. c #7C7C7C",
"t. c gray49",
"y. c #7E7E7E",
"u. c gray50",
"i. c #808080",
"p. c #818181",
"a. c gray51",
"s. c #838383",
"d. c #848484",
"f. c gray52",
"g. c #868686",
"h. c gray53",
"j. c #888888",
"k. c #898989",
"l. c gray54",
"z. c #8B8B8B",
"x. c gray55",
"c. c #8D8D8D",
"v. c #8E8E8E",
"b. c gray56",
"n. c #909090",
"m. c gray57",
"M. c #929292",
"N. c #939393",
"B. c gray58",
"V. c #959595",
"C. c gray59",
"Z. c #979797",
"A. c #989898",
"S. c gray60",
"D. c #9A9A9A",
"F. c #9B9B9B",
"G. c gray61",
"H. c #9D9D9D",
"J. c gray62",
"K. c #9F9F9F",
"L. c #A0A0A0",
"P. c gray63",
"I. c #A2A2A2",
"U. c gray64",
"Y. c #A4A4A4",
"T. c #A5A5A5",
"R. c gray65",
"E. c #A7A7A7",
"W. c gray66",
"Q. c #A9A9A9",
"!. c #AAAAAA",
"~. c gray67",
"^. c #ACACAC",
"/. c gray68",
"(. c #AEAEAE",
"). c #AFAFAF",
"_. c gray69",
"`. c #B1B1B1",
"'. c #B2B2B2",
"]. c gray70",
"[. c #B4B4B4",
"{. c gray71",
"}. c #B6B6B6",
"|. c #B7B7B7",
" X c gray72",
".X c #B9B9B9",
"XX c gray73",
"oX c #BBBBBB",
"OX c #BCBCBC",
"+X c gray74",
"@X c gray",
"#X c gray75",
"$X c #C0C0C0",
"%X c #C1C1C1",
"&X c gray76",
"*X c #C3C3C3",
"=X c gray77",
"-X c #C5C5C5",
";X c #C6C6C6",
":X c gray78",
">X c #C8C8C8",
",X c gray79",
"<X c #CACACA",
"1X c #CBCBCB",
"2X c gray80",
"3X c #CDCDCD",
"4X c #CECECE",
"5X c gray81",
"6X c #D0D0D0",
"7X c gray82",
"8X c #D2D2D2",
"9X c LightGray",
"0X c gray83",
"qX c #D5D5D5",
"wX c gray84",
"eX c #D7D7D7",
"rX c #D8D8D8",
"tX c gray85",
"yX c #DADADA",
"uX c gray86",
"iX c gainsboro",
"pX c #DDDDDD",
"aX c gray87",
"sX c #DFDFDF",
"dX c gray88",
"fX c #E1E1E1",
"gX c #E2E2E2",
"hX c gray89",
"jX c #E4E4E4",
"kX c gray90",
"lX c #E6E6E6",
"zX c #E7E7E7",
"xX c gray91",
"cX c #E9E9E9",
"vX c #EAEAEA",
"bX c gray92",
"nX c #ECECEC",
"mX c gray93",
"MX c #EEEEEE",
"NX c #EFEFEF",
"BX c gray94",
"VX c #F1F1F1",
"CX c gray95",
"ZX c #F3F3F3",
"AX c #F4F4F4",
"SX c gray96",
"DX c #F6F6F6",
"FX c gray97",
"GX c #F8F8F8",
"HX c #F9F9F9",
"JX c gray98",
"KX c #FBFBFB",
"LX c gray99",
"PX c #FDFDFD",
"IX c #FEFEFE",
"UX c white",
/* pixels */
"M a x Z A V A A Z C C S D S Z A N p c S A B Z Z Z C Z A S S Z A ",
"C s x V V C C A S A A G K H D F C s n F C N V A A Z Z Z D F D G ",
"C s l V Z Z A S S S D F H H G G Z a n H S C S D Z D D D S V S G ",
"V a l C S Z S F D S F D G F A F C p v J J F F G S H K J D B V D ",
"B p z V A B V S D A S S D S Z F V p b L L H A A G G H G V B A F ",
"B p l B V M C A A A Z C Z Z S F V p n P I P S D H F F A B Z F F ",
"V p l V B N A S C Z Z C A A D D V p n P U L G H G J H F A D G D ",
"j w p l k j l k j l l j f h l x j w s v c x x l l x x l h j z x ",
"V B N N N m b N M B V m b a h B V B m B C N V C C Z Z C V s h B ",
"A F A Z A B M S S S D V V g z D D D C Z F Z D K J K L L P j z D ",
"Z S A Z Z B N A C S D Z S g z F F S C A C V S G G J K K J g z F ",
"V V C N B B B Z V S S F H g l F S Z C Z N m Z Z S D S G H g l F ",
"V V V B n M N C B S D Z G f k D Z C C C n m N C S S D Z G f k D ",
"V C B N n M N V V S G A G f j S C C V V m m N V Z S D A G f k D ",
"N B V N m m V B B Z D G J f j S B B V N M n C V B Z Z F H f j D ",
"j f j h h j l h d k l x z r y z j f j h h j l h d k k x z r y z ",
"b u k B B B B B N N N C C C B V n u k N B m B N N N N V C C B V ",
"V s c Z C C C A S Z A G K H D F Z s x C V N C A S S A H K J F G ",
"C s x B C Z V C Z A Z G K J F G Z s l V B N A S S D S D J J G G ",
"V a x C A Z C A C S A F J K K G C a l C A V D F S F G D F F D F ",
"N p c F G S Z S A A S F F G F G C p c Z Z Z S A A D F D A A S F ",
"N p c S J H D F F G G G G D D F C p x C Z C A S A S D S Z C S F ",
"V p x Z J K G J G J H G F D D D V p x Z B N S S C A S Z C C S D ",
"j w a z z x x z z x x l g j l x j w s z k j z k j l l j f h l x ",
"V B m m N N V C V V C Z V s h B V B N N M m b N M B V M b a h B ",
"A D V N C Z D L J H K K K h z D S D Z A V M m A A S S C V g z D ",
"V C N N V C S K G G J K J g z F S Z B C B M N Z C A Z Z A g z F ",
"N B V N m n Z A A D D J J g l F A V V N m n V C B Z Z F H g l F ",
"V C V B b m N V B A D F J f k F A C V B n m N V N Z D Z G g k D ",
"V C B N m m N C C S F S J f j D Z C B N m m M V V A F A H f k D ",
"N B N M M m C V B Z Z F J g j S B B B M m m C V B C Z F J g j D ",
"g h h f d g j f a j j l z q r l h h h f d g k f a j j l z q r l "
};
