/* XPM */
static char *EAST_resized1713887536[] = {
/* columns rows colors chars-per-pixel */
"64 64 50 1 ",
"  c #393939",
". c #3F3F3F",
"X c gray23",
"o c gray24",
"O c #434343",
"+ c #3A3A3A",
"@ c #414141",
"# c #373737",
"$ c gray12",
"% c gray22",
"& c #353535",
"* c #1B1B1B",
"= c #3C3C3C",
"- c #343434",
"; c gray20",
": c #3E3E3E",
"> c gray21",
", c gray17",
"< c gray16",
"1 c #252525",
"2 c #313131",
"3 c #2F2F2F",
"4 c #323232",
"5 c gray27",
"6 c #444444",
"7 c gray25",
"8 c #232323",
"9 c gray28",
"0 c #1D1D1D",
"q c #191919",
"w c gray14",
"e c gray26",
"r c #464646",
"t c #131313",
"y c gray15",
"u c gray18",
"i c gray13",
"p c #101010",
"a c gray9",
"s c #484848",
"d c gray11",
"f c gray19",
"g c #040404",
"h c #2C2C2C",
"j c #282828",
"k c #0B0B0B",
"l c #202020",
"z c #494949",
"x c #4B4B4B",
"c c gray29",
/* pixels */
"#fw0,4+....XXXX                 #fw0,4+....XXXX                 ",
"X:<$,.>X +4-X@+o@  oX :O@OO.X...X:<$,@.X +2-Xo+oO  =Xo..@OO.X...",
"XX<$,X#+++#++= o@  .Xo@OOOO.X...XX<$,@..XX&%+= XO  oX+  .XO.X...",
"oX<$,&% #Xo+o&+.@ +.XX.@@OOOo.oOoX<$,.Oo X%>+&+o=%++X + =oO.=.oO",
". <$,# %+XXXo&X@X..oX.@oOO@@oOo@. <$,O.oXX>+:+X@=#o@Xoo+.X #oOo@",
". <$,;% oX X.oooX.oXo..XO@OO.O.Oo <$,O@Oo.+ =@o.: ..7@@.@o%# O.@",
"o:<*,4 +.oXoXO@@oo=+@.X.X.@. :7oo:<*,+@6@O..@@O@.%@OO@@@@. #3=Xo",
"X <*,>++.o XX@XO...X@.XOo@O.&.o.X <*,X@66O@...XO:%OOOOOO.X %%.o.",
"X <*,#%X..++##X@o+.+@.Xo@O@+;oo@X <*,.OOOO:@o.#oO.O@OO@O. %% o:@",
"o+<*,X+-=X4>X==:.oo+Xo%@X .o+.o@o+<*,.r5O957X=#:O=..O..@&;- o.oO",
".-<*,-&  +#; #o Xo.XXo-:+ o%X.o.o-<*,.95O9zO+-oXO@@o..== ##o@.o.",
"o#<*,>% & #;ooXo Xo#X.;:X X .oo@=><*,.65O5se.@6.@OO .@ =##=.@@XO",
"o <*,>##:%#%X#o. +o+X.%=.X@ .o:@o <*,O55s9x5: O.O.O6O.@@+#.o@.=@",
".X<*,-%+=4# .e.. #oXXX XX=. .@:ooX<*,6Ocx5ze.65@O.O66O=OeX.@@O7o",
"&-yqw4#-#42;&#&#4>#-##;-34#-#>>#&-yqw#+X:  + ++;##     #;- &  ##",
"$0pkadi$$$$$$$$**$$$$$$*t*$$8w88$0pkadi$$$$$$$$**$$$$$$*t*$$8w88",
".==@+XX                  &j0y3#o.==@+XX                  &j0y3#o",
"XoX.X %X@>% -3+O%-@+O. #;X-$1#+@XoX. ; @5@oooeOO@OOOOOOO56-$1#X@",
"Xo..+:%XO+& &#+O=o:X.. >X ;$1X+oX... %%X6o=  6OOO@OOOOOOrz;$1X+o",
"XX.@XX Xo+ %&& O X@Xoo++++;$1+=@.Xo.+X++@#: +@@OOoOO6r@O9c;$1+=@",
"+ooO.+=:oX+%3 =@ =oo.o ;.=2$1XoOO.oO+%oo. X  O@O@.OO6rOO662$1XoO",
"++XXXXo +o+#>+ .+%X.@o==.:2$1X=@.ooX Xo++%  o.oO..OO@OOOOO2$1Xo@",
"&X++X %2#++;+++o;#Xoo@=.O5-*1X..@XXX#+X+X&u>.oX+Xo..o.@@OO-*1X..",
" %+& o &  +>+# o: o@X+.@OO;*1 ..o XXXoX++&2#X#X .XX@++.@OO;*1 ..",
" %X+#X +>;##%&+. 3X..o+X@6;*1#:.o%XX X+o%;##+& o..+.oo+X.5;*1#:.",
"X  +% %#f3;>&>#X#>X.OXX#.94*1&:.X  +%X +23;>&>%+=XX.OXX#@64*1&:.",
"+ XX% &+#3&=&#XX++X.Ooo .53*1&o.+ oX%++++3&X-#XXXoXoOoo .53*1&..",
"+% X#%%&>>;#-#-X%#X.@.X=.r2*1&:.+% X# %&#>;#&#&X= X.:oX+.62*1&:.",
"%%   +# %&&>X=# =  ...7OO5-*1&.:%    ##+ &&>#:#X+  oX+7OO5-*1&..",
">> > o 2&%2;+o+ -  ooo:OOr;*1-..>> > = 2& 3;+.  -  .  :OO6;*1-..",
"3&;--#-3423;-#-4<4-#&#+  +h*$u=>3&;--#-3423&-#-4<4-#--X  +h*$u=#",
"88**0$$**$$$$$$*t*$$$$$$$$qgpq$l88**0$$**$$$$$$*t*$$$$$$$$qgpq$l",
"#fid,4+...oXXXX           X@:   #fid,4+...oXXXX           X@:   ",
"X:<$,XXX#+XX+OXo@  .XXOO.OO.X...X=<$,o&   2-+.+o.  .X+:@@OO.X...",
"X <$,XXX + #+X o@  ooX:OOOO.X...XX<$,XXXX+&  = o@oX.XX@OOOO.X...",
"oX<$,X+XX +X++ X@  oXX.@OOO.X.oOoX<$,&% #X%&=-+X:XooXo.@O@OOo.oO",
". <$,%+++X+XX> X.  .X+.@OOO@X.o@. <$,# %% &%.#X7=oooX..o5@OO@O.@",
". <$, ;#%+X+o-XXo o.X .OOOOO@@.@. <$,;#+:;;>o@+@+XOoo.oo7OO.....",
"=:<*,+; XXXoo#X. #O.X+..OOOOOOOoo:<*,4 X. %#=OX@XX@X..ooXO@.@X@o",
"X%<*,X ooXX+XX+7 %=XXo@oOOOOOO@.X <*,>#X@ +XX@.Oo.@.O@.OX@o.oo..",
"X><*,X+O@.o+%#o X%+o=o@=.oO@.@.OXX<*,X#Xo+++o=+X#o.o.O=oo=o=X.o.",
"o%<*,oo7O@o@X=O+@XXooooOo.@.=+:Oo=<*,.:X.#+o@Xoo:=oXo@o7.&::oXoO",
"=-<*,XXoOO.@=#6#6......7@@.X@.o..#<*,+>Xo o+ Xo. ..oo.+:o   X.o.",
"=#<*,X XOOeO..eo.oO@.@.@OXoooooOo#<*,+% . X#.@.:  .X.. 7X#  .:oO",
"o <*,o#X@556. z=OoOOO@7.@..oX.:@o <*, #Xo2 %o#o. %.XX@ =. o .X:.",
".+<*,o%oO55O7@s@OOOOOO.eOo@o@@:ooX<*,++X.3##o5XO #.oo.+oX = o7:o",
"&4yqw4># ##   X##     #%24#&#->#&-yqw%#& 22;& &#4>#&&#;&34#-#>>#",
"$0pkadi$$$$$$$$**$$$$$$*t*$$8w88$0pkadi$$$$$$$$**$$$$$$*t*$$8w88",
".==@+XX                  &j0y3#o.==@+XX                  &j0y3#o",
"XoX@%;% X.Xooe5.O@.O@O.rxO-$1#X@XoX@+X+X@-# &3+@+>@ O: +-X-$1#X@",
"Xo.o%+#&#X= +@5@O@..OO.5s@;$1X+oXo.. .X .4;%&# O+ . .. =  ;$1X+o",
"XXo@  %#%+: +@rO@@.@OO@O5@;$1+=@oXX@ +o#.;-%--#O =. .+%X+>;$1+=@",
"%ooo%3%+%+@ >75OO:.OOOO@6O2$1XoOX.oo%;o=@; #3 X. X. .+%%o 2$1XoO",
" # #%# >%   +OeO@..OOOO66O2$1Xo@o++#%+X>X->#%+X=  :+==oo:@2$1Xo@",
"2+% #+ 2->u& @ ..==.oo@OO6-*1X..oX  #  2&&u&+:  3 %.  .@@9-*1X..",
"%% & + > &2> +  :+=O.X@OOO;*1 .@oXX& + >#-2> # X@%%.+ .@OO;*1 ..",
" %o+#+  #;## &+X 2#..X.@O5;*1#:.o+=+#X +%;## &+o#2>.oo+=.5;*1#:.",
"X  +% %&f3;>;>%+%>+.OXooO94*1&:Oo  +% %#23;>&&%%%>X.OXX#.s4*1&:.",
"+ oX%%&+%3-+-#oX++X.OoooOr3*1&.O+ oX% &  3- -#oX%%XoOoX .93*1&..",
"+% X#%%>#&;#&#&X+#X.OoXo.92*1&=.+% X#%%&&>;#-#-X+#XoOoX=.92*1&:.",
"%%  %##+%&>> =>o=  .X 7OO9-*1&.. %   %#% &&> =#==  oX 7OO9-*1&..",
">> ># &2&%2;X.  -  o  :OO9;*1-..#>%>% &2&%2;X.+ -  o  :OOs;*1-..",
"3&;-;;-3433--&;4<4-#--   Xh*$u= 2-;-;;;3223-&#-4<4-&--X# Xh*$u=#",
"$$$$$$$**$$$$$$*t*$$$$$$$$qgaq$l$$$$$$$**$$$$$$*t*$$$$$$$$qgaq$l"
};
