/* XPM */
static char *_d87f26fc86b4ab1877b83d8bda478ad3tMg3665IdJE2ftA[] = {
/* columns rows colors chars-per-pixel */
"64 64 96 2 ",
"   c #2F302B",
".  c #33342E",
"X  c #3B352D",
"o  c #3F382F",
"O  c #353533",
"+  c #393631",
"@  c #373833",
"#  c #3B3B34",
"$  c #3C3C3B",
"%  c #403529",
"&  c #443A2E",
"*  c #433D33",
"=  c #483F34",
"-  c #413F3A",
";  c #3F4035",
":  c #3F403B",
">  c #434236",
",  c #4D4436",
"<  c #43443C",
"1  c #4A433B",
"2  c #47493D",
"3  c #4B4B3D",
"4  c #564335",
"5  c #514837",
"6  c #52463D",
"7  c #59473A",
"8  c #534B3C",
"9  c #5B4839",
"0  c #4F513F",
"q  c #51503F",
"w  c #3F4040",
"e  c #444543",
"r  c #4A4644",
"t  c #474842",
"y  c #4B4B44",
"u  c #474748",
"i  c #4C4C4A",
"p  c #524B42",
"a  c #504C49",
"s  c #4E5143",
"d  c #4F504B",
"f  c #525444",
"g  c #565946",
"h  c #585B47",
"j  c #53554B",
"k  c #58574F",
"l  c #56594B",
"z  c #5A5D4C",
"x  c #555553",
"c  c #585755",
"v  c #575853",
"b  c #5A5C53",
"n  c #575858",
"m  c #5C5C5B",
"M  c #605F5F",
"N  c #5C604A",
"B  c #5F634D",
"V  c #5E6053",
"C  c #5F6155",
"Z  c #5F6057",
"A  c #5F605D",
"S  c #60634F",
"D  c #61644F",
"F  c #616353",
"G  c #636650",
"H  c #646751",
"J  c #606257",
"K  c #626455",
"L  c #656757",
"P  c #656850",
"I  c #666954",
"U  c #676A55",
"Y  c #676A57",
"T  c #686B53",
"R  c #696C53",
"E  c #6B6E55",
"W  c #63655B",
"Q  c #656759",
"!  c #61625D",
"~  c #62635D",
"^  c #63645C",
"/  c #67695A",
"(  c #696C5B",
")  c #6D7057",
"_  c #6D7159",
"`  c #5F6060",
"'  c #636361",
"]  c #646462",
"[  c #676762",
"{  c #656564",
"}  c #676766",
"|  c #676861",
" . c #676864",
".. c #696964",
"X. c #6A6B66",
"o. c #696969",
/* pixels */
"u t t < : < < < < < t y t t y y u t t t t e t t t i y u t i y u u i i j i y y i y y y i d i y i u y y y i i t t t t t i d i i i ",
"i G P B B B B B B N z z z z B s t l b z B z z z b ! ! m ! ! b y y m [ ^ ^ K F z h l z G I G z y s S G G P P B z B z B D E E G i ",
"3 P E R R D D D D D z B z z B 3 $ l C V D z b G ! [ X. .{ [ m u t C X.X.^ L G z h z z G I P z $ 3 F V B D D B N D D D P P E P y ",
"< D T P P B z B B z z b b z z 2 O j b F G B b G J W [ { { [ m e < b { X.^ Q J B D S B G L D h @ 2 B C z B F z B B G G H G R P 2 ",
"< z I P N l j l l f f l j j l < O f l l z l l z l v m ' ' A c $ $ c ! ! m ^ b z z V C K K z f @ > g j l l l f f f B B l l z h < ",
"< 3 f f s 2 < < > > ; # # < 2 $ # 2 2 2 2 < < 2 < < t y i i u $ < u y u e t < < 2 t t y t 2 < @ $ 2 ; $ < $ ; # # > 2 $ # < 2 : ",
"u < $ * * # + X + # O O O # # - e $ $ $ # # # # # @ # $ $ $ $ u u $ $ $ $ @ # # # # # # # # $ e < $ + + X X X X X X + X . @ - u ",
"t 2 f f f s 2 2 2 2 < < < 2 < < e < 2 2 3 2 2 t t t t t y i u u u u i i i t 2 2 2 2 2 2 2 2 < < < 2 2 2 2 2 2 2 2 2 2 2 2 3 2 t ",
": f P R P B z g z B h g f h g ; # s z z z z l h z b J C ! A c < : x [ [ [ ^ V z h g g g g h s @ $ l h h z z h z h N z g l B z < ",
"$ g P P D N z g z z z z f g g ; . f B z b z z z z C ^ [ [ ' m $ $ m ' { [ C C z l g g g g h f . $ h h z z h h z N S z z z G D ; ",
"# g P G B z B h h g h z f f g ; . f N B z B V F ^ ^ [  .{ { m $ $ n ' { [ ! ! b l h z h l g f . # h z z z z g z B D S H G I B # ",
"@ f P G D P B l f g h N g f g > . f N z z B C J ! [ [ o.o.{ m $ $ c ' { { [ ' m b z z h l h l . o g z z z z h z B P P P G G z @ ",
"@ f G G B B l l z l z z h l g ; . s z z z z m m m ' { o.o.{ ' w $ c { { { ' ! m m b b l h h l . o g z z z l l z B L P I G B f @ ",
"# f H F z g f j l z z z h z g # . y z h h z m m m A [ X.o.{ ` $ $ c ' ' ' ! m m m m l l l h f . # g g h l l l h h b G H J C h @ ",
"# f P C z f j j l g g z z z g # . y l g l l b b m ' { { o.{ ` w $ c { ' ' m m m b b l l l l f . # g g h l g l z z b B G J J h @ ",
"# g P V l g l l l l l z l g g ; . 3 l f f j v b m ' { { X.{ m w $ c [ { ' m m m b m b h l l f . $ v v z z z z z z J V F ^ ^ z @ ",
"# z I b f l l l l l f l l g l ; O y l f j j x b m m ' ' { { m $ O c m A m c m m b b v l l l f . $ b b v z C b z N b B V b ^ z # ",
": B I C j l l l b z l V l z b < O y v j j l x b m m ! ' { ' m $ O x m m m b c v c c v l l l f O $ m b l b m v l h C z z b C z $ ",
"$ z I m j l l j j z b V v b m < . y v l j j j x m m m m ! m m $ O j n c c c c x c v v l v l f . $ x x l b v j l l b l z v m z $ ",
"# j K v d l b b b b b J b b m < . y x v x j j v m m x x b m v $ O d m x x x x x c v v v c v j . # j j v b x x x v x j j b m l $ ",
"# 2 f j y i i i i d d l j d i $ . < t t u t y i i i t e t y y $ O u y u e e t y y i i y i y t O @ t t y y y y t y y t y y y t O ",
"# X @ # # o X X + X X # # + + + # . O O O O O O O O O O . O O $ $ O O O O O O O O O O O O O O O O O O O O X X X X X X . O . X # ",
"8 8 8 y 8 5 5 8 8 3 8 8 3 8 y i i y y y t 3 3 t t t y y y y y i y t y y y y y y y t t 3 3 y y i i i t t 3 3 5 , , , , 3 3 8 8 8 ",
") ) ) ) ) E I I I I I L L I / ( ( / ( E I I I Q I I / / ^ [ | [ [ / / / | | / / / / ( ( ( ( ( / / / I I I P E E P P I I E E ) ( ",
"_ _ _ _ _ _ ( ( I I I I Q / / X.X.X.( ( ^ I I ^ / / / | [ [ [ [ { X.X.X.X. .[ | X.| X./ / ( / [ [ ^ / ( / E E _ ) E ( E ( _ _ _ ",
"( ( ( ( ( ( I / I I I Q Q W ! [ X.X./ / ! ^ W ! Q ^ [ [ ^ ' [ [ [ { [ { { { [ [ [ [ [ ^ ^ [ [ [ [ ' ! / I ( ( ( ( ( / I / ( ( ( ",
"^ Q Q W Q Q ^ W ^ W Q ! C m m m [ ' ! ! m b m m ! ! ' ! m m ! m ' [ [ { { [ ' ! ' ' ! ! m m ! ' ' ' ! Q ! I ( W J I ^ m ^ / / I ",
"m m b v v b b b v m m m b c c b m m b m c x c c b m m m c c m m m m m m m m m m m m b b c c m m m m m b b m J v v b v k v C m m ",
"< < > * = * * * * - $ $ # * * - 1 * $ $ $ # $ $ $ $ $ $ $ $ $ e e $ $ $ $ $ $ $ $ $ $ $ $ $ $ e < < - - * > > > > > = = * * - < ",
": f N N N N z g g z f s 3 f 3 @ # > f f l z l j x x b m m j < $ $ : i x x j i i l h h l l l 2 # : g B S S S D D D S N B N h 3 $ ",
"< D ) E E E E P B B z h h z z > O f b F E / W ! ! ! { o.{ A i $ $ j ' { { ' m m C G P G F K f @ 2 P E _ ( E E E E _ ) E E E N < ",
"< B E E P P E P B g l z l l z < O f b K ( ^ ! m b m ' o.o.{ c $ $ v [ { { ' ^ C C J I K ^ K g @ < I E ( ( ( E ) ) _ E E E E G 2 ",
"< B I E G G B N z f l z l b z < @ j v C W m v c x x m ' { ' c $ $ b ' m m m m b v b C C C J l @ 2 K I E E I I E E ) E I I E P 2 ",
"< y 3 3 2 2 ; > 2 2 2 3 < < 2 < $ 2 t 2 3 t < < < < e u i i y < e y i u u u u t < 2 2 2 t t 3 $ < s s s f f 3 0 f f f f f f f 2 ",
"1 * # @ X X % X o X o # + # $ e u - # # # # # # # # $ $ $ $ < u r < $ $ $ $ $ $ # # # # # $ < u e - * # * & & * * & & * # * = r ",
", > 2 2 > 2 2 2 2 2 2 3 2 3 2 < e 2 2 2 2 3 2 2 t t y i i i y u i y i i i y t 2 2 2 3 3 3 2 < e < 2 3 3 3 3 3 3 s q q 0 3 3 , , ",
"* s z g g z z g g z B B z V B < # f z z l v l l b m A A A ! c < u b | { C m v z l z B B V b s # $ l B S N z z B D P D D B B g * ",
"@ f z g h z l h h z z V V J G t @ b J z l v h V m ! [ A m m v $ e m  .o.[ ! v z l l z z b b f O $ z N B z l z B B S B B z z g @ ",
"@ f z g h z z z l z B I Q J G t # b W B l x z K m M [ m m m m $ e ! X.X.X.{ b z l l z z v v s . $ h z B z h b D B B z z z h f @ ",
"@ g z z z h z B z b G I ^ C V t # v L I J v z J m ! ! m m ` m $ $ m X.{ { { m z j l z z v l y . $ h z B N z b B z z z z z h f O ",
"# z F B D V F G V K K I Q V b < O v Q L F z l b m ' ' A m ' m $ $ v { { [ ' m v j j z z b j 3 . # z B B h z b B z z z z z l f @ ",
"$ N I I I F L I K I I I K C V < O j ^ V z l v m m [ ' ' ' { m $ $ c ' { ' m m v l l z z b j 2   # V F F B b C G B z z z b z l # ",
"; S I I E I I I I L H I J C V < O x ^ b h z b m ' ' [ { { { m $ $ c ' { m m m m v v V b m v y . $ K G L H L Q P P L G G F C z $ ",
"> G / I E I Q I I H G K J m b < O j C V z l v m m ' ' {  .{ m @ $ x ' ' ' { ' m v b C V ^ ! d . < L K I P I W I H L G H L K B > ",
"> G I I ( I I I K G F C b m b < O j b b b b v m m m ' { { ' c $ $ c ' [ ' ' m c b b J F ! ' b @ 2 G L I I I K E I L K I I Q V * ",
"$ B I I E I K G G V b b z b l : O j b b b v x m m m ' { ' ' m $ $ c m ' m c c c b b J J ^ [ m # 2 G K I I I K E I K K I I W b $ ",
"# h J L E H J F J F b V l v l : O j b m m b b m m ' ' { { [ m $ $ c m A m m m m m m C ^ ^ [ m @ < B F Q L P G E I Q Q I I J z $ ",
"# z V F P D V F V b b b v l l : O d b b b b m m m ' [ [ [ { m $ $ c m m m m m m m m m ^ ! [ b # < V F Q Q H K I I Q K I Q J z $ ",
"# j l l z h l b z b v b v v l $ O d b b b b m m m ' ' { ' [ m $ $ x m m v m m m m m m m m C l O < C F K K F m K K ^ b F K C l $ ",
"# j l l h l v z z b v v l v l : O i m m v b m m m ' ' ' [ { n $ $ x m m c c m m m b m b b m j . $ v l b b b m C C m C V J b f @ ",
"@ i j j l l v z z v v b v v l < O i m m m m m m m ' m ' [ { m $ $ x m m n n c x x c m v v b d O $ l l l j b m C C v v z z l f # ",
"O y j x j v v b v v l b v b v : O i m m m m m m m m m ' ' { m $ $ x m m c c x x c c c c v v i O $ v x x x v b b v j j l l l f # ",
"O y j j x x x v v v v c x x x $ O i c x c c m c n n m m ' m x $ $ d v c c x x x x x x x x x i O $ c x x x x x b x j d l l f i O ",
"O t y i j j j j j x j x j j j $ O i x d x x x i x x c n m m i $ $ i j i i i i i i i i i i d y O $ i i i i j j j j i y j j s t O ",
"$ < < 2 2 t 2 t t y t y u t u $ O e u u u u u u e u u u i i y $ $ e < e : : w e e w : e e t t @ $ e e < < e t t 2 < < t 2 2 < $ ",
"u - - < < < > 1 e e < e e e e e u e e e e e e e $ $ - e e e t u u e $ $ $ $ w $ $ $ $ $ e e e u e e < $ $ $ < < < - 1 * < < < t ",
"p 1 r y p 8 9 7 p y p 8 8 p y i i y y i i i i i y y a y i i i i a i i i i i i i i y r i i i i i i i i i i y i i y p 6 4 6 y a 8 ",
"8 8 8 8 8 8 8 8 8 8 8 8 8 8 8 p p p 8 8 p y y p 8 8 8 8 p p i p p y y y y y i i y 8 y y i p y p i i i y y 8 8 p 8 8 8 8 8 8 8 8 ",
"D D D D D D D G D D G D D G V C F F F D D V G F G D D G F m C V m m b b m b V F V V C m V F F G G D D D D D D D D D D D D D D D ",
"E E E E R E E E E E I I I I I ^ Q Q Q I I Q I W I I I Q Q ! Q Q ^ M ! ! M M ! Q ^ Q Q ^ ^ Q Q Q I I E I E E E R E E E E R E E E ",
"_ _ _ _ ) E ( ( _ _ / ( ( / / [ / / / / / ^ / ^ / ( / [ ^ ' ' [ ^ ' [ [ ' ' [ X.X.X.X.X.[ X.../ / ( _ ( ( ( E E E E ( _ ) _ ( _ ",
"( ( _ ( I / / / / I ^ W Q Q ^ ^ ^ Q I ^ Q ^ ^ ^ ^ I ^ ' ^ ' ' ! ^ ' [ [ ' M ' [ [ X.X.X.{ X...[ ! Q ( / I / I I I I I / E ( ( ( ",
"K K I I G V F K K G v l l J J m V B V m v V K Q J b m m ^ ^ m ^ ^ ! ! Q m m m ' !  ./ ^ ^ / L b v V H L L K L L G G J b V J W Q ",
"s y f s y 2 y y y y i y 3 s f f s y y y 2 y f l f s s s f s j j l l b z l f j v j l l h l l l s y y f f f j l j f s s y y s l l "
};
