/* XPM */
static char *_fd56e9854d2493fda1fc4805711afa5lRepIvOpth3HfQRK[] = {
/* columns rows colors chars-per-pixel */
"64 64 231 2 ",
"   c #3C332D",
".  c #3C3631",
"X  c #3D3A36",
"o  c #3E3C3B",
"O  c #44352C",
"+  c #4A3529",
"@  c #4D392D",
"#  c #553B2C",
"$  c #443A34",
"%  c #4B3C33",
"&  c #433E3B",
"*  c #493F39",
"=  c #533E32",
"-  c #653D28",
";  c #4E4137",
":  c #44413E",
">  c #4A423C",
",  c #544236",
"<  c #5C4335",
"1  c #53453C",
"2  c #5B4539",
"3  c #55493E",
"4  c #5C4A3E",
"5  c #65432D",
"6  c #6B432C",
"7  c #7B4424",
"8  c #72462D",
"9  c #7A4628",
"0  c #7C4B2D",
"q  c #634533",
"w  c #6B4734",
"e  c #644A37",
"r  c #6D4934",
"t  c #634B3D",
"y  c #6B4D3B",
"u  c #744A33",
"i  c #7B4C33",
"p  c #794D39",
"a  c #6B503F",
"s  c #7D5236",
"d  c #73513E",
"f  c #7D543C",
"g  c #7F5A3F",
"h  c #454341",
"j  c #4A4643",
"k  c #4C4946",
"l  c #4E4C4A",
"z  c #514741",
"x  c #534B44",
"c  c #5B4D43",
"v  c #524E4B",
"b  c #5E5146",
"n  c #55514D",
"m  c #5B534C",
"M  c #565452",
"N  c #595653",
"B  c #5C5955",
"V  c #5D5B5A",
"C  c #634E42",
"Z  c #6A4F40",
"A  c #635145",
"S  c #6C5444",
"D  c #63554B",
"F  c #6A564B",
"G  c #66594E",
"H  c #6D5A4C",
"J  c #735543",
"K  c #7A5643",
"L  c #745945",
"P  c #7C5A44",
"I  c #745C4C",
"U  c #7B5D4A",
"Y  c #635B54",
"T  c #645B54",
"R  c #6B5C52",
"E  c #625E5B",
"W  c #735E52",
"Q  c #795F51",
"!  c #7E6045",
"~  c #7D614D",
"^  c #6C6055",
"/  c #64615D",
"(  c #6B635C",
")  c #746253",
"_  c #7B6453",
"`  c #7F6956",
"'  c #73665B",
"]  c #7B6658",
"[  c #73685E",
"{  c #7D6B5C",
"}  c #656362",
"|  c #6A6663",
" . c #6C6965",
".. c #6D6C6A",
"X. c #736B64",
"o. c #766C65",
"O. c #7A6D62",
"+. c #726E6B",
"@. c #7E7165",
"#. c #74716D",
"$. c #7C736B",
"%. c #6E6F70",
"&. c #757472",
"*. c #7A7673",
"=. c #7B7976",
"-. c #7D7C7B",
";. c #854827",
":. c #864C2A",
">. c #8A4D2A",
",. c #8E4D29",
"<. c #87502C",
"1. c #92532C",
"2. c #98542A",
"3. c #835234",
"4. c #8C5533",
"5. c #895836",
"6. c #83553B",
"7. c #855A3D",
"8. c #8B5B3C",
"9. c #945833",
"0. c #9A5B32",
"q. c #935D3A",
"w. c #94613D",
"e. c #9D633B",
"r. c #9D663A",
"t. c #A2663C",
"y. c #A7683C",
"u. c #835C42",
"i. c #895C41",
"p. c #846145",
"a. c #8C6444",
"s. c #84634B",
"d. c #8C644B",
"f. c #88694C",
"g. c #8D6A4C",
"h. c #946443",
"j. c #9A6542",
"k. c #966B46",
"l. c #9D6842",
"z. c #92664B",
"x. c #946A4C",
"c. c #9B6D4B",
"v. c #9C714E",
"b. c #826652",
"n. c #896653",
"m. c #846954",
"M. c #8B6B53",
"N. c #836D5B",
"B. c #8B6E59",
"V. c #926D53",
"C. c #986E56",
"Z. c #8A7157",
"A. c #86705D",
"S. c #8B725D",
"D. c #947155",
"F. c #9D7353",
"G. c #93745B",
"H. c #9B7759",
"J. c #9C7A5B",
"K. c #A26B43",
"L. c #AA6E41",
"P. c #A06C4B",
"I. c #A97347",
"U. c #A3724C",
"Y. c #A9754A",
"T. c #A17552",
"R. c #A37955",
"E. c #A97C54",
"W. c #A47B5A",
"Q. c #B17D54",
"!. c #816F61",
"~. c #847263",
"^. c #8A7563",
"/. c #8E7965",
"(. c #82766A",
"). c #897769",
"_. c #85796D",
"`. c #8B7A6C",
"'. c #947B64",
"]. c #9B7D62",
"[. c #947C6A",
"{. c #827B74",
"}. c #8A7E74",
"|. c #817E7C",
" X c #887F79",
".X c #907F74",
"XX c #AC8252",
"oX c #AB825D",
"OX c #B28153",
"+X c #98816A",
"@X c #9B826B",
"#X c #8A8076",
"$X c #82807E",
"%X c #8C847D",
"&X c #948273",
"*X c #988878",
"=X c #A58667",
"-X c #B18A61",
";X c #A38C74",
":X c #A9947C",
">X c #B59976",
",X c #7F8081",
"<X c #848383",
"1X c #898683",
"2X c #8A8886",
"3X c #878888",
"4X c #8C8B8B",
"5X c #938B83",
"6X c #9A8E83",
"7X c #918E8C",
"8X c #8F908F",
"9X c #9D9180",
"0X c #92908E",
"qX c #9B938C",
"wX c #939392",
"eX c #999693",
"rX c #9B9896",
"tX c #9C9B9B",
"yX c #A39382",
"uX c #A79888",
"iX c #A39B94",
"pX c #A19E9D",
"aX c #B2A28E",
"sX c #A8A19B",
"dX c #A4A3A2",
"fX c #AAA6A3",
"gX c #ABA8A6",
"hX c #ACACAC",
"jX c #B1AEAA",
"kX c #B6B1AD",
"lX c #B5B4B3",
/* pixels */
"x m D A A G D D A A D D A A c k k x D E E ^ | | |  . . .+.+. .V n N } | } / } / | | } / T ^ B M n B Y D F F D D A D D D A A x k ",
"1 u.K.t.K.U.v.c.t.t.I.K.t.y.C.' k _ ].yX:X;XuXsXfXjXgXgXkXlXlX-.N $XpXpXsXpXpXiXsXsXsXuX:XuXuXE T [.].H.J.H.F.c.j.c.U.U.U.K.c.G ",
"% 6.Y.Y.Y.U.h.w.L.L.L.e.t.y.K.].> U H.&X@X=X;XyXiXfXsXsXfXgXlX4XN $X0X4X7X7X7X5X0XeX6X*X@X=XaX .m '.M.B.B.M.d.h.j.c.U.k.c.K.Q.B.",
"% f U.F.T.v.u.7.U.Y.U.w.r.t.k.'.> L D.)./.G./.`.6XrXeXqXiXrXdX3Xv &.2X<X<X<X<X%X1X2X%X'.G./.6X/ 1 N.N._ m.b.U u.h.F.v.x.c.K.T.) ",
"O s h.f.F.V.u.g k.k.g.a.w.j.c._.> L S.(.(.A.~.).5XeX4XqXeXwXtX3Xv +.<X-.-.<X<X[.#X<X}.'.Z.@.1XE , { { I _ _ ~ K p.x.z.z.c.v.d.R ",
"$ q y 4 A S e 2 2 e A a a y I ( : c T Y Y D T R X.=...#.&.=.<X&.l E } } } } } R / } / H D N  .N * A b c c c c 2 2 t t y d a S m ",
"> > > : : > > * > > > > > > > j j j : : & & > j l v l l l n l l k k j j j j j j j k j j j h j l j > > & : > > > * * * * > * : : ",
"> r 6.8.a.g.g.a.a.a.g.g.f.Z.Z.T k G O.~.m.~.^.S.5XwX7X0X0X0X<XB k / 1X4X2X2X<X{.{.}.).S.N.m.b.m 1 L p.P 7.a.p.g.g.a.b.p.7.p.L 1 ",
"= 0 2.0.t.oXT.E.y.y.Y.K.r.v.E.'.k _ &X%X@X'.@X@XiXdXtXdXfXgXjX|.h +.rXtXeXeXwX6X&X&X].H.D.D.XX~ , f.D.z.t.R.H.oXoXI.E.c.l.Y.U.S ",
"# :.1.1.1.T.g.v.e.r.T.q.5.5.<.f.> L S.$.^.N.~.`.%X4X3X4X7X7XeX=.: ..<X<X<X|.<X.X).~.Z.b.b.s.J.` ; { M.u.q.V.B.W.W.L.e.i.w.U.U.J ",
"+ 9 2.>.0.I.D.T.w.j.v.9.5.6.s m.* L S.(.).~.~.`.%X2X3X3X2X4X7X*.:  .<X-.$X|.<X}.).`.^.N.m.M.@X{ ; ] b.u.h.G.^.J.F.e.0.3.q.j.8.S ",
"@ :.1.9 <.K.T.c.6.k.F.a.p.P L N.> L ~.(.(.A.).`.%X3X3X4X4X4X0X*.:  .<X$X<X2X<X X_.{.).S.Z.S.*X@.; ' m.8.l.H.S.D.C.j.l.5.8.f f S ",
"@ ;.1.i 3.j.k.k.s f.D.g.p.U I ~.: H $.*._.^.~.`.%X3X$X<X2X4X4X&.& } -.<X<X2X3X$X}.|._.N.Z./.*X+., ' ~.u.c.H.S.B.d.h.q.4.q.d P S ",
"@ ;.>.i 3.c.x.V.6.p.M.a.p.I ) @.* H $.*.{.^.~._.1X3X<X2X4X3X4X*.&  .<X3X<X3X<X<X}.-.$.!.!.@.%XX.> [ (.b.F.D.Z.M.z.h.q.8.q.J U H ",
"@ >.4.7.3.c.x.V.i.P M.a.s.I ) ~.* H $.&.*.~.~._.1X3X$X1X3X3X8X=.o  .$X3X<X$X<X$X#X=.$.O.@.$.1X+.> ' @._ d.f.G.'.C.k.k.q.8.S P H ",
"@ >.7.s.u.c.D.B.u.s.S.g.s.I ) ~.> F +.&.*.~.~.(.<X3X-.$X<X<X4X&.o } -.3X<X$X$X$X#X*.$.O.O.+.1X+.> ' ~._ d.p.S.[.V.h.V.h.5.y d F ",
"@ 4.u.s.d.Y.F.B.s.m.`.a.p.I ) $.> S +.&.&.~.~.$.<X-.&.$X$X<X3X&.o } -.3X<X-.=.-.$X&.#.{ O.+.1X+., { (.N.g.g.^./.C.k.c.K.8.J P F ",
"@ 5.u.P s.I.U.M.M.N.(.s.! R X.$.* F +.#.#.~.O.*.<X<X&.|.|.<X3X&.o } =.<X<X-.*.-.-.&.+.{ @.#.<X+.1 { ~._ x.M.S.^.V.S.c.y.7.S P F ",
"+ 3.K f s.I.U.M.s.) (.b.P H X.$.: T +...+.~.O.$.$X<X&.|.|.=.2X&.o } =.$X<X*.&.=.=.+.+.{ @.&.2X+.1 { ~._ d.s.N.^.n.B.z.t.7.S P F ",
"+ i d d K t.c.s.f ) O.~ P H X.o.> G ......~.~.$.-.<X*.{.-.=.2X&.o } &.-.-.&.+.&.*.#...{ @.&.1X+.1 { (._ M.b.N.~.M.N.d.l.u.S L F ",
"+ 6 2 e t 8.u.a q A T A S c E X.* x V V / ) ^ |  .&. .|  . .&. .& M } } } / E } } / E R R } &. .* G ^ A W H H ) I W L u.y 2 C D ",
"$ $ $ $ $ 1 > * $ & : * * X & k : & : h : & : h h h h h h h h h o & h h h h : h : : & * : : h k & : : * > * > j > > > > $ $ * > ",
", > > > > x z k k h h > > : h j k j j k k k k l k j k l l l k k l j k l l k j l k h h > h j k l x j k j v k x v z x k k > j > > ",
"5.s a J J u.~ ) I G / U H Y E Y G [  ...#.~.O.*.&.&.#.{.-.=.&.&.=...&.*.=. .| &...} | ) [ ..&.#.O.[ #.W ] ] ' [ U _ U L A t y d ",
"6.u y J J u.P ~ I ^ ( P L E / E ) X. . ...O.O.#.&.&.*.*.=.&.&.&.=...&.&.&... ...+... .N.O.#.&...O.O.#.W _ ) ' W f _ U K y e y p ",
"s u y J P d.U b.I ( ( P L T / ^ ^ |  . . . .o.#...&.=.*.*.&.&.&.*.+.%.&.=.#.+.#.+... .O.+...#...X.O.+.W _ ) | I s U ~ s.P S y p ",
"i r y J J u.L I L ^ / L H Y E E ^ / } } }  .o.+. ...&.+.&.&.#.&.$... . .&.+... . . . .(  . ... .| '  .H W ^ ( L s I _ s.J t e w ",
"q < 2 t t y t C C m N C b n n n n M M B N N Y V V V } V } } } } ( E V V } V V V V V V B V V V V B B B c D N N C w D D S t 2 , < ",
"$ * 1 c 3 2 1 c c x x 3 3 x x : o : x n v n n n M M M M M M k o & h l M M M M M n v v n n v j o & k n 3 1 z x 1 , 1 x 1 , % $ . ",
"> f v.=X-XOXT.=X=X;X*XJ.v.].:X$.: ) *XyXqXyXqXqXeXeXrXrXrXpXrXB h +.wXtXtXtXtXrX5X*X*X&X&X;X*Xx z ).@Xx.s.B.V.z.q.d.V.x.8.4.i.A ",
"> 7.U.-X-XOXv.F.J.@X`.D.z.D.:X9X> m.=X*X%X*X5X5X2X2X7X7X4XwXgX&.j &.4X4X4X4X4X<X{.`./.S.^.@X>X^ 2 B.G.z.s.d.s.8.q.8.s.8.3.>.t.U ",
"$ f c.W.H.E.x.x.V.).@.B.g.V.@X#X> ~ '.`.=.}.}.#X$X$X%X<X<X<XwX+.h  .<X$X-.<X<X|.$.$.N.` m.G.-X^ < d.V.d.s.s.s.u.q.u.~ u.0 4.w.L ",
"$ f z.m.M.T.c.V.b.~.$.N.D.D.`.-.> U ^.*.=.{.`.}.|.-.|.-.-.<X0X..h } -.-.=.-.$X*.$.$.{ _ _ '.;X^ 2 g.M.d.b.] ~ u.q.s._ P 3.8.x.I ",
"$ q y C C S y y c m B D F S Y } : c D N V V T E V } } } } } #.E h l V / V E / B N M m c c T ' m > A D C c n 4 2 e t c e q e A A ",
"k > * : : * > > : : h h j : : h h : : h h h j j h h j j j j j l k h h j j j j h h h h : : j h j j > h : : : : * * : : > > > : > ",
"z d 7.U b.a.8.M.b.N.~.S.^.#X<X} j T {.$X3X4X7X7X7X4X4X4X4X4X<XM l | <X4X4X4X7X2X<X<X-.{.`.%X-.v v { ~.s.I O.@.s.u.~ ~.f.i.f._ v ",
"= 1.1.6.x.K.y.U.F.H.].E.oXyXdX4Xk ~.*X2X4XwXiXsXdXdXpXtXtXtXhX..l -.rXdXtXdXgXpXeX4X2X&X@XuXfX/ m =X@Xk.M.).[.K.0.z.'.K.2.r.k.W ",
"+ ;.7 u 6.q.y.P.k.g.b.U.F.`.2X<X> m.`.&.=.,X1X5XwXwX8X2X<X<XtX&.j +.$X4X4X4X4X1X|.*.#.O.N.{.7XE x D.m.p._ O.`.j.9.s m.w.,.;.u F ",
"+ ;.7 u s 9.L.E.F.V.m.J.v.(.$X-.> _ ~.&.=.-.%X5X4XwX4X3X|.-.4X..h  .=.3X4X3X3X$X{.&...X.] $.$XV > u._ ~ _ ' `.e.;.6.M.j.2.7 6 Z ",
"+ 7 7 8 6.4.l.E.C.D.S.].F.(.-.-.> _ (.&.=.=.%X7XwXwXwX2X<X<XwX..h  .-.4X4X3X2X|.=.&...X.) o.$XB j u._ _ _ H ).q.;.d.B.c.0.7 6 t ",
"O 7 7 6 i 4.k.F.x.Z.S.=XR.(.|.-.: ) $...&.&.{.5XwXwXwX2X1X<X4X..:  .|.4X3X|.2X{.=.=...X.) X.-.V : K I L I S S.w.:.n.^.x.1.9 6 t ",
"O 7 0 r f 5.k.c.d./.^.@XJ.(.-.-.: R $...#.+.*.1X4XwXwX2X1X$X4X..& | -.3X3X<X1X{.=.*...O.'  .-.V : U ) P ) S m.a.0 b.^.v.2.:.8 y ",
"O 6 0 w i 8.x.D.d.~.N.&X'.$.-.=.: R $.#.&.&.*.1X4X4X4X1X%X$X4X..: X.$X<X<X<X<X{.=.=.&.O.{  .-.V h ) ) P [ ' A.d.i s.S.k.,.:.8 t ",
"  6 8 6 i 8.D.D.M.`.{ `.).$.=.=.: ^ $.&.=.&.{.%X4X2X3X%X%X$X7X+.& | <X3X<X<X2X|.=.&.+.o.'  .-.V h ) ) J X.o.).x.i ~ B.a.0.:.u Z ",
"  5 u 5 i 8.V.D.n.`.` &X`.$.=.-.: ^ +.#.*.&.$.%X3X<X-.$X%X-.4X..&  .<X2X$X-.1X|.=.&.#.+.' ..$XV h [ ' L X.o.~.x.i I ~.p.9.3.u Z ",
"  5 r 5 u 7.M.B.b.`.` `._.#.=.-.h ^ $...#...o.}.3X-.=.|.$X-.4X..: X.<X<X$X|.1X|.=.&.&.o.'  .-.V h ' ( I X.#.~.V.i I ~.M.9.3.s S ",
"  # r - 8 s s._ U ^.{ #X_.*.-.-.h E $.+.#. .X.{.3X-.&.|.$X-.4X+.h X.|.-.|.-.<X|.&.&...+.'  .=.V h ' ^ I o.&.*.B.3._ (.m.q.7.P R ",
"  # u 6 8 6.m.Q I ~.@.}._.&.-.-.: E #...&...X.(.-.-.&.-.|.$X4X..:  .|.-.*.-.4X$X#.....+.X. .=.V h ( ^ I +.$.X.N.6._ (._ 8.u.U R ",
"  # u r u u.b.I U A.$.#X*.&.-.-.: E #...#.#.X.{.-.=.&.=.|.|.4X..:  .-.$X-.|.4X-.&... . .X. .*.V h | / [ +.+.X.{ d.{ {._ 7.P U R ",
"  < w y i 7._ I U A.$.$X$.+.=.=.: V +.#.&.#.X.$.<X=.+.=.|.<X2X .: +.|.<X|.$X4X=.+.+. .| | } &.V h (  .[ o.+.X.N.d.b._._ g d L R ",
". < r y i 6.` W U _ X.$.#.+.*.*.o V ..+.#.#.| $.<X=.+.&.=.<X<X .: ..<X<X-.-.3X=.&.#. . .( } *.V h E } [ O.+.X.N.i.~ (._ f L U R ",
". < w y p d I I I ) ( +. .+.=.*.o E ....#.#.| $.<X=...#.=.$X|.} &  .<X3X=.=.3X-.&... . .| } &.B : V } [ ' +.+.] p U ~._ K L I R ",
"  = q u d K I H S H ( #. . .*.*.o E #.+.&.&.| $.|.&. .} #.=.|.} &  .-.<X*.=.<X-.&... .| |  .&.M o E } O.(  ..._ s U @.) P L I T ",
"  = q y d P _ A Z R ( +. .} &.*.o B ....&.&. .*.-.*.....&.&.-./ o } =.|.&.=.-.&.#...} }  . .*.N o V } | E } } ) K _ O.' L J I R ",
". O = = , t c > , x n B M N /  .& l B B V V B E } } V V E } ..V o n } } V } } V V M M M N N } M o v l n v l M m t D Y m t 4 c m ",
"& $ X . $ & & X X X o h h & : k : & & : o & : h j h h : & : : j : h h j h h j h h : h h h h j j : : : : : : : : $ : j : > : : j ",
"h : * * : : : * > & & j j : : : : j > j & & j j j j k j & j : h h j h k k k j j k j k k k k k h j k k k k k k k > j k j x k j > ",
": * : j > > j > > & & h : : : h h j k k j : j k l v n k : k j h h h j l k k h h j j j k j j j h h j k k h : h > > j j h j x k > ",
"A c x c c D D m D B V / V V B / } V V E B V / | ..}  . .} / /  . . . . .E V } E / } / / E E B n n N B N M l n m A D / Y D R F F ",
"J Z Z Z S Q ) F R ( +.#...+. .+.&...+.&.+.#.#.*.=.&.*.*.=.&.&.=.=.=.=.=.+...=.&.+. .......+. ./ E } } | / / } ' P W O.' I ) I U ",
"t 2 4 4 t A D b D T / | / / / / } E /  .} |  ...#...#..... ..... .+.+. .| / .. .} / E V E E E V B B N E B V E G Z G ^ G S D A Z ",
"t 4 4 c 4 C D b b m B Y N B E Y B B E / / / /  .|  .+. . .}  . .|  .+.| / E / E N B B N N v v n n N n B m m N D C D Y m D b c Z ",
"1 1 4 4 4 c c 3 3 m m m n n n n m m B / B N B Y Y Y E E / E V E E Y / V B n N N n v v v v k k v n n n m v k j x 3 z k > 3 z z 4 ",
"    $ $ $ $ $ . $ & & : : : : : : h k k j : : : h h : : : : : : : : : : & & : : & o & & & & & & & & o & X X . .   . . . .     O "
};
