/* XPM */
static char *NORTH_resized1713887536[] = {
/* columns rows colors chars-per-pixel */
"64 64 58 1 ",
"  c #393939",
". c gray23",
"X c #3F3F3F",
"o c gray24",
"O c #434343",
"+ c #3A3A3A",
"@ c #414141",
"# c #373737",
"$ c gray12",
"% c #1B1B1B",
"& c gray22",
"* c #353535",
"= c #3C3C3C",
"- c #343434",
"; c gray20",
": c #3E3E3E",
"> c gray17",
", c gray21",
"< c gray16",
"1 c #252525",
"2 c #313131",
"3 c #2F2F2F",
"4 c #FFFFC5",
"5 c gray27",
"6 c #323232",
"7 c #444444",
"8 c #232323",
"9 c #FFFFD7",
"0 c #191919",
"q c gray25",
"w c #A7A74B",
"e c #1D1D1D",
"r c gray9",
"t c #FFFFBC",
"y c gray14",
"u c gray26",
"i c #FFFF8F",
"p c #FFFF59",
"a c #FFFFB3",
"s c #FFFF6B",
"d c #464646",
"f c #131313",
"g c #202020",
"h c gray15",
"j c gray28",
"k c #040404",
"l c #101010",
"z c #272727",
"x c gray11",
"c c #494949",
"v c gray13",
"b c gray18",
"n c gray19",
"m c #0B0B0B",
"M c #484848",
"N c #282828",
"B c #4B4B4B",
"V c #2C2C2C",
/* pixels */
"#nye>6+XXXX....                 #nye>6+XXXX....                 ",
".:<$>X,. +6-.@+o@  o. :O@OOX.XXX.:<$>@X. +2-.o+oO  =.oXX@OOX.XXX",
"..<$>.#+++#++= o@  X.o@OOOOX.XXX..<$>@XX..*&+= .O  o.+  X.OX.XXX",
"o.<$>*& #.o+o*+X@ +X..X@@OOOoXoOo.<$>XOo .&,+*+o=&++. + =oOX=XoO",
"X <$># &+...o*.@.XXo.X@oOO@@oOo@X <$>OXo..,+:+.@=#o@.oo+X. #oOo@",
"X <$>;& o. .Xooo.Xo.oXX.O@OOXOXOo <$>O@OoX+ =@oX: XXq@@X@o&# OX@",
"o:<%>6 +Xo.o.O@@oo=+@X.X.X@X :qoo:<%>+@7@OXX@@O@X&@OO@@@@X #3=.o",
". <%>,++Xo ..@.OXXX.@X.Oo@OX*XoX. <%>.@77O@XXX.O:&OOOOOOX. &&XoX",
". <%>#&.XX++##.@o+X+@X.o@O@+;oo@. <%>XOOOO:@oX#oOXO@OO@OX && o:@",
"o+<%>.+-=.6,.==:Xoo+.o&@. Xo+Xo@o+<%>Xd5Oj5q.=#:O=XXOXX@*;- oXoO",
"X-<%>-*  +#; #o .oX..o-:+ o&.XoXo-<%>Xj5OjcO+-o.O@@oXX== ##o@XoX",
"o#<%>,& * #;oo.o .o#.X;:. . Xoo@=,<%>X75O5MuX@7X@OO X@ =##=X@@.O",
"o <%>,##:&#&.#oX +o+.X&=X.@ Xo:@o <%>O55MjB5: OXOXO7OX@@+#Xo@X=@",
"X.<%>-&+=6# XuXX #o... ..=X X@:oo.<%>7OcB5cuX75@OXO77O=Ou.X@@Oqo",
"*-h0y6#-#62;*#*#6,#-##;-36#-#,,#*-h0y#+.:  + ++;##     #;- *  ##",
"$elmrxv$$$$$$$$%%$$$$$$%f%$$8y88$elmrxv$$$$$$$$%%$$$$$$%f%$$8y88",
"X==@+..                  *Neh3#oX==@+..                  *Neh3#o",
".o.X. &.@,& -3+O&-@+OX #;.-$1#+@.o.X ; @5@ooouOO@OOOOOOO57-$1#.@",
".oXX+:&.O+* *#+O=o:.XX ,. ;$1.+o.XXX &&.7o=  7OOO@OOOOOOdc;$1.+o",
"..X@.. .o+ &** O .@.oo++++;$1+=@X.oX+.++@#: +@@OOoOO7d@Ojc;$1+=@",
"+ooOX+=:o.+&3 =@ =ooXo ;X=2$1.oOOXoO+&ooX .  O@O@XOO7dOO772$1.oO",
"++....o +o+#,+ X+&.X@o==X:2$1.=@Xoo. .o++&  oXoOXXOO@OOOOO2$1.o@",
"*.++. &2#++;+++o;#.oo@=XO5-%1.XX@...#+.+.*b,Xo.+.oXXoX@@OO-%1.XX",
" &+* o *  +,+# o: o@.+X@OO;%1 XXo ...o.++*2#.#. X..@++X@OO;%1 XX",
" &.+#. +,;##&*+X 3.XXo+.@7;%1#:Xo&.. .+o&;##+* oXX+Xoo+.X5;%1#:X",
".  +& &#n3;,*,#.#,.XO..#Xj6%1*:X.  +&. +23;,*,&+=..XO..#@76%1*:X",
"+ ..& *+#3*=*#..++.XOoo X53%1*oX+ o.&++++3*.-#...o.oOoo X53%1*XX",
"+& .#&&*,,;#-#-.&#.X@X.=Xd2%1*:X+& .# &*#,;#*#*.= .X:o.+X72%1*:X",
"&&   +# &**,.=# =  XXXqOO5-%1*X:&    ##+ **,#:#.+  o.+qOO5-%1*XX",
",, , o 2*&2;+o+ -  ooo:OOd;%1-XX,, , = 2* 3;+X  -  X  :OO7;%1-XX",
"3*;--#-3623;-#-6<6-#*#+  +V%$b=,3*;--#-3623*-#-6<6-#--.  +V%$b=#",
"88%%e$$%%$$$$$$%f%$$$$$$$$0kl0$g88%%e$$%%$$$$$$%f%$$$$$$$$0kl0$g",
"#n8x>6+XXXo....           .@:   #n8x>6+XXXo....           .@:   ",
".:<$>...#+..+O.o@  X..OOXOOX.XXX.=<$>o*   2-+X+oX  X.+:@@OOX.XXX",
". <$>... + #+. o@  oo.:OOOOX.XXX..<$>....+*  = o@o.X..@OOOOX.XXX",
"o.<$>.+.. +.++ .@  o..X@OOOX.XoOo.<$>*& #.&*=-+.:.oo.oX@O@OOoXoO",
"X <$>&+++.+.., .X  X.+X@OOO@.Xo@X <$># && *&X#.q=ooo.XXo5@OO@OX@",
"X <$> ;#&+.+o-..o oX. XOOOOO@@X@X <$>;#+:;;,o@+@+.OooXooqOOXXXXX",
"=:<%>+; ...oo#.X #OX.+XXOOOOOOOoo:<%>6 .X &#=O.@..@.XXoo.O@X@.@o",
".&<%>. oo..+..+q &=..o@oOOOOOO@X. <%>,#.@ +..@XOoX@XO@XO.@oXooXX",
".,<%>.+O@Xo+&#o .&+o=o@=XoO@X@XO..<%>.#.o+++o=+.#oXoXO=oo=o=.XoX",
"o&<%>ooqO@o@.=O+@..ooooOoX@X=+:Oo=<%>X:.X#+o@.oo:=o.o@oqX*::o.oO",
"=-<%>..oOOX@=#7#7XXXXXXq@@X.@XoXX#<%>+,.o o+ .oX XXooX+:o   .XoX",
"=#<%>. .OOuOXXuoXoO@X@X@O.oooooOo#<%>+& X .#X@X:  X.XX q.#  X:oO",
"o <%>o#.@557X c=OoOOO@qX@XXo.X:@o <%> #.o2 &o#oX &X..@ =X o X.:X",
"X+<%>o&oO55Oq@M@OOOOOOXuOo@o@@:oo.<%>++.X3##o5.O #XooX+o. = oq:o",
"*6h0y6,# ##   .##     #&26#*#-,#*-h0y&#* 22;* *#6,#**#;*36#-#,,#",
"$elmrxv$$$$$$$$%%$$$$$$%f%$$8y88$elmrxv$$$$$$$$%%$$$$$$%f%$$8y88",
"X==@+..                  *Neh3#oX==@+..                  *Neh3#o",
".o.@&;& .X.oou5XO@XO@OXdBO-$1#.@.o.@+.+.@-# *3+@+,@ O: +-.-$1#.@",
".oXo&+#*#.= +@5@O@XXOOX5M@;$1.+o.oXX X. X6;&*# O+ X XX =  ;$1.+o",
"..o@  &#&+: +@dO@@X@OO@O5@;$1+=@o..@ +o#X;-&--#O =X X+&.+,;$1+=@",
"&ooo&3&+&+@ ,q5OO:XOOOO@7O2$1.oO.Xoo&;o=@; #3 .X .X X+&&o 2$1.oO",
" # #&# ,&   +OuO@XXOOOO77O2$1.o@o++#&+.,.-,#&+.=  :+==oo:@2$1.o@",
"2+& #+ 2-,b* @ XX==Xoo@OO7-%1.XXo.  #  2**b*+:  3 &X  X@@j-%1.XX",
"&& * + , *2, +  :+=OX.@OOO;%1 X@o..* + ,#-2, # .@&&X+ X@OO;%1 XX",
" &o+#+  #;## *+. 2#XX.X@O5;%1#:Xo+=+#. +&;## *+o#2,Xoo+=X5;%1#:X",
"*--*;;-2332;22*;>V*# *#* .3%g3= #--*;;-2332;62*6>3*# **;#o3%g3=#",
"$$$$$$$%%$$$$$$%f%$$$$$$$$0kr0$g$$$$$$$%%$$$$$$%f%$$$$$$$$0kr0$g",
"z.....o..oo..o.%8..o..ooo+#;#o.1z.....o..oo..o.%8..o..ooo+#;#o.1",
"zwsa49499949ipw%vwsa49499949ipw<zwsa49499949ipw%vwsa49499949ipw<",
"zwsat4t444t4ipw%8wsat4t444t4ipw1zwsat4t444t4ipw%8wsat4t444t4ipw1",
"8  +   #&  # * %g   +*  + *;*=+y8  +   #&  # * %g   +*  + *;*=+y",
"%%%%%%%00%%%%%%%%0%%%%%%%%rkrr0%%%%%%%%00%%%%%%%%0%%%%%%%%rkrr0%"
};
