/* XPM */
static char *SOUTH_resized1713887536[] = {
/* columns rows colors chars-per-pixel */
"64 64 201 2 ",
"   c #393939",
".  c gray12",
"X  c #373B2F",
"o  c #373737",
"O  c gray23",
"+  c #1B1B1B",
"@  c gray20",
"#  c #353535",
"$  c #3A3A3A",
"%  c gray22",
"&  c #313131",
"*  c #373F27",
"=  c #3F472B",
"-  c #383C30",
";  c gray24",
":  c #393D31",
">  c #33352F",
",  c gray17",
"<  c #2F2F2F",
"1  c gray16",
"2  c #353731",
"3  c #35392D",
"4  c #252525",
"5  c #373933",
"6  c gray21",
"7  c #3D4133",
"8  c #343434",
"9  c #434B2F",
"0  c #31332D",
"q  c #41492D",
"w  c #3F4335",
"e  c #33372B",
"r  c #3F3F3F",
"t  c #3B4329",
"y  c #414537",
"u  c #FFFFC5",
"i  c #373D2B",
"p  c #3B3F33",
"a  c #383A34",
"s  c #3C4032",
"d  c #45493B",
"f  c #393B35",
"g  c #3C3C3C",
"h  c #232323",
"j  c #343630",
"k  c #353B29",
"l  c #FFFFD7",
"z  c #3D452A",
"x  c #191919",
"c  c #454D31",
"v  c #323232",
"b  c #3A3C35",
"n  c #3B3F32",
"m  c #3C3E37",
"M  c #A7A74B",
"N  c #394128",
"B  c #414141",
"V  c #3D4135",
"C  c #383E2C",
"Z  c #3B3F31",
"A  c #3A3E31",
"S  c #363832",
"D  c #3D432E",
"F  c #434739",
"G  c #3A3C36",
"H  c #1D1D1D",
"J  c gray9",
"K  c #FFFFBC",
"L  c #3E4039",
"P  c #2F312B",
"I  c gray14",
"U  c #3B3D36",
"Y  c #434343",
"T  c #464A3C",
"R  c #313529",
"E  c #3A3E32",
"W  c #333927",
"Q  c #2F3327",
"!  c #474F33",
"~  c #49432D",
"^  c #3F472C",
"/  c #363831",
"(  c #3B412D",
")  c #FFFF8F",
"_  c #FFFF59",
"`  c #FFFFB3",
"'  c #FFFF6B",
"]  c #3E3E3E",
"[  c #202020",
"{  c #353D25",
"}  c #131313",
"|  c gray15",
" . c #44483A",
".. c #3D3F38",
"X. c #383024",
"o. c gray13",
"O. c gray27",
"+. c #373B2D",
"@. c #333B23",
"#. c gray28",
"$. c #372F23",
"%. c #3E442F",
"&. c #040404",
"*. c #2D2D2D",
"=. c #101010",
"-. c #393125",
";. c #474B3D",
":. c #38362A",
">. c #313725",
",. c #48422C",
"<. c #484E39",
"1. c #40423B",
"2. c #3C422E",
"3. c gray11",
"4. c #393D2F",
"5. c #383A33",
"6. c #272727",
"7. c #3B371F",
"8. c #3B3D37",
"9. c #444A35",
"0. c #373821",
"q. c #464C37",
"w. c #363428",
"e. c #42443D",
"r. c #313921",
"t. c #34361E",
"y. c #4B4E40",
"u. c gray19",
"i. c #282828",
"p. c #0B0B0B",
"a. c #424638",
"s. c #383220",
"d. c gray29",
"f. c #39351D",
"g. c #444B30",
"h. c #484F33",
"j. c #464841",
"k. c #3A361E",
"l. c #2F371F",
"z. c #3D3921",
"x. c #2D2F28",
"c. c #3E4234",
"v. c #494D3F",
"b. c #444444",
"n. c #404631",
"m. c #44321C",
"M. c #383826",
"N. c #3B382C",
"B. c #424833",
"V. c #3E4431",
"C. c #313527",
"Z. c gray18",
"A. c gray30",
"S. c #40351E",
"D. c gray25",
"F. c #2B3D27",
"G. c #42442B",
"H. c #423620",
"J. c #4A4C45",
"K. c #3A3A28",
"L. c #36322C",
"P. c #393B24",
"I. c #46472E",
"U. c #313A2F",
"Y. c #3E362A",
"T. c #4E4831",
"R. c #293925",
"E. c #4A5135",
"W. c #4B4B4B",
"Q. c #383A22",
"!. c #2D3124",
"~. c #494C3E",
"^. c #2A3323",
"/. c #483B29",
"(. c #333321",
"). c #273523",
"_. c #333125",
"`. c #404436",
"'. c #4A442E",
"]. c #4E5042",
"[. c #463E30",
"{. c #463420",
"}. c #35392B",
"|. c #3F3923",
" X c #302C26",
".X c #2F3523",
"XX c #3D3527",
"oX c #453826",
"OX c #48361D",
"+X c #2F3C25",
"@X c #2F382D",
"#X c #3E3F25",
"$X c #413B21",
"%X c #32342E",
"&X c #453F2B",
"*X c #2D3A23",
"=X c #3A382C",
"-X c #44463F",
";X c #2F3A29",
":X c #353620",
">X c #483523",
/* pixels */
"o u.I H , v $ r r r r O O O O                                   o u.I H , v $ r r r r O O O O                                   ",
"O $ 1 . , A i % * % & >   6 :   % X X : X 6 t  .q q = y $ ; s : $ ] 1 . , X.:.# %   < > $ r   ; B 3 X V * - $ B D = = 7 : g 7 r ",
"O   1 . , Y.m.O @ % @ X $ % X o % X i : i > 3 q.9 9 = y : r 7 G $ O 1 . , -.{.2 @ $ v j         B X X : * o f Y = = = 7 : r 7 O ",
";   1 . , N.$X% @ % 2 > O # %   % X * p ( 3 ^ j.9 9 = d * s U O $ b 1 . , -.m.2 o $ 8 > $ # $ o ] 2 E p * o p O = D = y : 7 m w ",
"r 5.1 . , K.#X% # % 2 - r o a ..- O i - V.k 9 J.c 9 q F * y ; O O 5.1 . , X.S.F.@ $ & e o # a O - 2 - C * a - g : y = y p w ; ; ",
"r   1 . , i M.% % # @ 2 m   5 m @ % X X t X q ;.c 9 9 y * B 7 V O   1 . , $.H.> o & @ & 8.; % a @ - - * e # C % Z c = 7 : r 7 w ",
"O A 1 + , :.Q.O o * @ > $ @ : b % $ - X 9 s c c = 9 O.;.% m Y O O s 1 + , X./.< @ e @ 0   1.5 ]   5 : X p - * o N ~ B c.2.N Y G ",
"O % 1 + , :.z.  6 k @ 2 L f U p 5 f : X = V 9 ~.= 9 j.d   O Y O O   1 + , $.>X@ # 0 @ & O 2.o O o X : X : - * o ( ~ L d 7 t Y O ",
"    1 + , w.P.5 v { 0 j c.D D V # # p X 9 N 9.J.q 9  .d $ m Y ;     1 + , $.oX2 @ k & o S +.a B # 2 : X : * * $ z ,.e.y * t B O ",
"; f 1 + , >.k.- @ X X 9 <.7 N w   a X X = w ! y.= 9 d y.f n y : 6 f 1 + , -.t.e # @ *.S $ U 8 U O 3 E - * i * o = T.m w * t 7 w ",
"O # 1 + , Q 7.# 2 3 X 9 y.Z 4.w 6 X X X q w c T = 9 <.;.* = V ; @ 8 1 + , -.r.o @ @ & @ o 8 % #   < - - * i * o t T.= w * %.y ; ",
"$ o 1 + , 0.k.- % i e ^ <.a.c.w 6 X X X q y ! T q q  .F * y a.E o o 1 + , X.H.% P e @ & o ; 5   % X X X * - * o t '.t V C %.w n ",
"O $ 1 + , { f.Y.X e > q d T q w   X k X 9 w q.#.9 9  .F * c w b O   1 + , s.OX6 0 *.P @ 5 $ k ;   5 X X i - * o N ,.t s : z 7 f ",
"$ b 1 + , =Xf.X 5 k & z <.d 9 w % 5 * X q w T O.q q e.w - E.Y $ O b 1 + , -.z.# @ x.0 @ 8   3 O % 5 3 C : - * o N ,.z s : N 7 O ",
"# > | x I S e j @ e & X U U 4.j 0 8 e > +.5.b   C.+.$ j @ Z / # 8 > | x I L.w.< & P & @ & / v & v > e e j j e & C.=X3 / j +./ o ",
". H =.p.J 3.o.. . . . . . . . + + . . . . . . + } + . . h I h h . H =.p.J 3.o.. . . . . . . . + + . . . . . . + } + . . h I h h ",
"r g g B $ O O                                     # i.H | < o ; r g g B $ O O                                     # i.H | < o ; ",
"  5 o 6 X k f.X i { & D v.F = 1.% j p X q C T A.d 9.8 . 4 o G O 8 G % O @ @ k.o 0 0 2 o & < % $ 6 0 X 3 r V * o z = 8 . 4 o G ; ",
"  5 X o 3 Q 0.2 i * & ^  .d q m 6 3 p X q t B.W.F T @ . 4 O $ $ o G : p < P w.@X3 < @ o > 0 6   % X X X : : * o t t @ . 4 O $ O ",
"O # a % 3 W @.3 & k 2 ( B.d n.y # - p X 9 2.9 d.y d @ . 4 $ - A o   G G @ 8 @.R.< @ < @ @ @ 8 7 X X 3 X V % * o : * @ . 4 $ f ; ",
"  a o   k >.l.R.@ P > N 9 d = Y   - : X q ..q O.w ( & . 4 O m g o f $ g Q 2 z.).@ & e 2 < 2 5.$ @ 3 X X : % W o Z D & . 4 O m ; ",
"% # a o 5 M.>.> # & @ 5 q F %.; 5 X - X 9 s c F n.n & . 4 O m g % o $ 6 @ X r.# @ < @ R 6 / 5 % 5 X X X f i * # D D & . 4 O A ; ",
"& % - 6 %   R Q @ & & % ^ F n % < X X X t X 9 Y 9.7 8 + 4 O A ; & f %   o o @.& # , < > % a > X < X X - X X k % z = 8 + 4 O 7 O ",
"  % O   o k 2 W # 0 @ % 1.d : o # 3 X X t X q Y q w @ + 4   n :   5 $ # o o i # # P < > % # 2   @ X X X i o k o t = @ + 4   7 O ",
"  % O o o & >.+X# & < # D.w X   8 v 3 - V.- c e.q t @ + 4 o s O   % %   # 6 r.U.# < > 2 5 # # $ @ v 3 X   E i o t q @ + 4 o A r ",
"O o ;   o @ R 3 & < & 8 Y V : % # # * p V W 9 a.9 t v + 4 # Z : O   % $ o o { e u.< & @ @ > 3 % # # { X ; * * o D n.v + 4 # - r ",
"$ # ; O o > 2 X > < > & ; 7 2 a < o * : C i ( F q N < + 4 # s f $   $ $ o o X a 2 < @ o @ o *   o o * X B C * o X = < + 4 # s r ",
"$ o $ g o : # e @ !.0 @ ] $ X % % 5 * p * X k %.9 = & + 4 # A O   %   O o $ 0 6 2 0 @ # 8 5 @ o % X * X ; N * O t = & + 4 # s r ",
"% o $ g o # o a # R 2 5 p $ X % - X X : X @ - e.q = 8 + 4 # 7 O % o o   # % 2 % o & P # o > 6 a X X X X a 5.* ; = = 8 + 4 # : O ",
"6 6 O o o # 2 & # W & # p $     > X X : X 6 t L 9 = @ + 4 8 n $ 6 # % 6 @ 6 5 x.# @ & 0   S % a > X X X X 5 i g = = @ + 4 8 X O ",
"< # # # @ v < < & < & @ > # 8 & 1 0 > j e > 3 b 4.+.*.+ . Z.b # < # @ @ & 0 & x.& & < 0 8 v @ 0 1 0 > > > @ j 8 +.+.*.+ . Z.a # ",
"h h + + H . . + + . . . . . . + } + . . . . . . . . x &.=.x . [ h h + + H . . + + . . . . . . + } + . . . . . . . . x &.=.x . [ ",
"o u.o.3., v $ r r r ; O O O O                       O B ]       o u.o.3., v $ r r r ; O O O O                       O B ]       ",
"O $ 1 . , $.7.5 > > & > $ $   O o 3 X X * # k ; D = = 7 : $ A O $ - 1 . , .Xl.o 5 X < 0   # - ; 6 X X p % w w U q = t w $ g s r ",
"O % 1 . , s.>.R @ & @ 3   $ 2 O 6 e k X * % * ..= = z 7 i O : O O   1 . , M.t.2 X e < 0 % o : f   X X : O w 9.1.= = N n $ r 7 r ",
"O a 1 . , s.l.> & & @ > o @ # f o 2 * - * a *   z z t y * n : ; O % 1 . , e 7.o o Q < 0 b # - 8.% X - p b w ! d = z t : O 7 n r ",
"$ 2 1 . , $.r.@ & @ 2 > $ 3 S # X 5 * i * - X o q = z y * : : ; O 2 1 . , k Q.o # e < 0 m 8 - 8.X X E C Z y h.F = = N * L 7 - r ",
"  @ 1 . , $.r.@ @ *.@ 2 % o a 6 # X i i * - * % G.I.2.w * - Z L   2 1 . , k t.2 5 e & 2 U f ..p @ 3 V C C a.q. .= = = N V ..s L ",
"6 S 1 + , X.i # o 0 & 2 % 8.: O % 5 X X i - * o [.,.U Z i N : $ O - 1 + , 3 @.& > @.> j y D ( A   - p X ^ 7 ! <.= = = t V.w n ; ",
"$ % 1 + , X.XX2 @ < & @ $ k f $ 5 X X X - X * o ,.&Xm w - N : O O 5 1 + , :.f.& 5 >.3 q d w t c.6 v : X t 7 ! d = = = t w 7 A O ",
"O 6 1 + , X.:X> & & & & 6 j S   & X X X - X * % ,.~ 7 7 - C n 1.  # 1 + , 3 @.2 5 3 3 g.v.7 X w & # E i D ( 9.q.q q q s - 7 A ..",
"$ 5 1 + , $.0.X > & v > $   8 8.% X X X * - * o ~ ~ A 7 i m s p o 8 1 + , 3 t.X 5 X 3 9 <.F y V o G - E c y ! O.9 = z Z - ; s w ",
"$ @ 1 + , -.0.& 2 < S & 6 8 o o # 0 X X * X * o ~ ~ 2.n * L s g 6 8 1 + , :.7.o - X 3 z h.F y w o 3 k - = y c -X9 z ^ 7 : L 7 ; ",
"$ 6 1 + , s.P.w.5 R @ @ o f   o 6 2 X X * : * o I.~ s t * %.7 n % # 1 + , :.S.% X i X t ! y L 7 : X * 3 q s ! ].9 z q %.a y w w ",
"  % 1 + , 7.m.Q & *.0 0   0 X ;   2 X X C p * o = ~ 7 t * %.n G 6 % 1 + , { t.% k 3 3 g.! `.s w S X - : ^ s c d.= z = y $  .7 L ",
"o @ 1 + , X.|.R # P & @ 8 e > ; % o : X p : * o q G.L t C p w $ % 5 1 + , K.7.o @ Q X g.E.w 7 7 # 3 - C = Z c #.= = = y $ d y ; ",
"8 0 | x I L.N.0 8 0 & > & < > # %Xj > > S j e & Q 0 # 3 j / S o @ 0 | x I j 3 & < P > Z Z 5./ v & > > e 4.2 Z   C.}.+.b 8 b / o ",
". H =.p.J 3.o.. . . . . . . . + + . . . . . . + } + . . h I h h . H =.p.J 3.o.. . . . . . . . + + . . . . . . + } + . . h I h h ",
"r g g B $ O O                                     # i.H | < o ; r g g B $ O O                                     # i.H | < o ; ",
"O G $ # @ Q 0.> 0 e o % @ <   O % j : X * X * o ^ = 8 . 4 o G ; # f % O 3 # k o i * 3 g.#.y * % # E E X 9 y v.#.9 q 8 . 4 o O O ",
"O f A   &  Xw.*Xe 0 @ @ > 0 % $ 6 G X X - - * o t z @ . 4 O $ $ o a : O 3 > X X 3 W X h.O.y.t   $ > : X 9 y T #.d  .@ . 4 O $ O ",
"O 6 f o @ _.{ !.@ 0 @ o 8 # 6 $ # - p X : 5 * o N t @ . 4 $ b $   o f $ X 2 W X & > X c #.y.9 m X 5 p X ! V T W.F T @ . 4 $ U O ",
"$ f o ; e (.{ ^.# & 2 o < 2 S g   a m X : 5 W o : z & . 4 O m ; 6 a   ] W 2 i F.@ @ X c O.~.q - % X p X c e.T A.y ;.& . 4 O m 7 ",
"  6 a 6 # k e R # 8 # 2 @ 0 5 $ 2 X f - E a C % ( D & . 4 O U g % # $   5 - > # S @ > = O.d 9 s % V p X ^ B d d.y ;.& . 4 O n m ",
"&   a % o # R Q # # < P 2 3 0 % < X X : X 5 $   t 9 8 + 4 O n m & $ O ; o   R & # @ < q O.y 9 g @ p p X c b.d d.d ;.8 + 4 O s f ",
"o %   # o 8 0 @.# e < 2 @ @ 2 % $ X 3 : i X - O z = @ + 4   s 7   %   O o $ e 6 o 2 & c b.1.q B # 5 ; X q m d #.d T @ + 4   7 n ",
"o o   $ % o W ;X# & # o @ & # # o v 3 : - * i % 2.= @ + 4 o Z O   o   $ % O 3 U.6 0 @ c b.] B.D.$ $ L X z n q.j.d c.@ + 4 o - O ",
"# @ @ @ @ 8 P P < < & @ v < > & , < e j j e e @ 3 4.< + [ < U / # 8 # o @ j > & < & & b   6 b @ Z.@ e > X e Z b b > < + [ < b 8 ",
". . . . . . . + + . . . . . . + } + . . . . . . . . x &.J x . [ . . . . . . . + + . . . . . . + } + . . . . . . . . x &.J x . [ ",
"6.O O O O O ; O O ; ; O O ; O + h O O ; O O ; ; ; $ o @ o ; O 4 6.O O O O O ; O O ; ; O O ; O + h O O ; O O ; ; ; $ o @ o ; O 4 ",
"6.M ' ` u l u l l l u l ) _ M + o.M ' ` u l u l l l u l ) _ M 1 6.M ' ` u l u l l l u l ) _ M + o.M ' ` u l u l l l u l ) _ M 1 ",
"6.M ' ` K u K u u u K u ) _ M + h M ' ` K u K u u u K u ) _ M 4 6.M ' ` K u K u u u K u ) _ M + h M ' ` K u K u u u K u ) _ M 4 ",
"h     $       o %     o   #   + [       $ #     $   # @ # g $ I h     $       o %     o   #   + [       $ #     $   # @ # g $ I ",
"+ + + + + + + x x + + + + + + + + x + + + + + + + + J &.J J x + + + + + + + + x x + + + + + + + + x + + + + + + + + J &.J J x + "
};
