/* XPM */
static char *_de9518a32094540ef6893f880c0f3327M7fTYZqcxpYV9Yv[] = {
/* columns rows colors chars-per-pixel */
"32 32 149 2 ",
"   c #1E1E1E",
".  c #252525",
"X  c #2B2B26",
"o  c #2C2D2B",
"O  c #312D25",
"+  c #2F3026",
"@  c #2E302B",
"#  c #353627",
"$  c #393627",
"%  c #32342C",
"&  c #3A352A",
"*  c #363B2D",
"=  c #393C2E",
"-  c #343533",
";  c #373933",
":  c #393D30",
">  c #3A3E30",
",  c #3B3F30",
"<  c #3A3D32",
"1  c #3B3F33",
"2  c #383934",
"3  c #383935",
"4  c #3A3834",
"5  c #383A34",
"6  c #393B34",
"7  c #383A35",
"8  c #393A35",
"9  c #393B35",
"0  c #383836",
"q  c #383936",
"w  c #383837",
"e  c #383937",
"r  c #393937",
"t  c #393A37",
"y  c #3B3B35",
"u  c #3A3C34",
"i  c #3A3C35",
"p  c #3B3F34",
"a  c #3B3E35",
"s  c #3A3C36",
"d  c #3B3D36",
"f  c #3A3C37",
"g  c #3C3F35",
"h  c #3C3D37",
"j  c #3D3F37",
"k  c #393C34",
"l  c gray22",
"z  c #383938",
"x  c #393938",
"c  c #393A38",
"v  c #3A3B38",
"b  c #3B3B39",
"n  c #3A3A3A",
"m  c #3B3B3A",
"M  c #3A3A3B",
"N  c gray23",
"B  c #3A3C38",
"V  c #3B3D39",
"C  c #3B3C3A",
"Z  c #3C3C39",
"A  c #3C3E38",
"S  c #3D3F38",
"D  c #3C3E39",
"F  c #3C3C3B",
"G  c #3D3E3A",
"H  c #3D3F3A",
"J  c #3E3F3D",
"K  c #3A3A39",
"L  c #3A402D",
"P  c #3B412D",
"I  c #3B422D",
"U  c #3A402F",
"Y  c #3B422E",
"T  c #3E402C",
"R  c #3D412E",
"E  c #3C422E",
"W  c #3C422F",
"Q  c #3D432F",
"!  c #3E432F",
"~  c #3E452E",
"^  c #3F452E",
"/  c #3E442F",
"(  c #3E452F",
")  c #3D432E",
"_  c #3C4031",
"`  c #3D4231",
"'  c #3C4033",
"]  c #3D4133",
"[  c #3E4332",
"{  c #3E4233",
"}  c #3E4430",
"|  c #3F4431",
" . c #3F4432",
".. c #3F4433",
"X. c #3C4034",
"o. c #3D4035",
"O. c #3E4135",
"+. c #3E4235",
"@. c #3D4036",
"#. c #3F4237",
"$. c #3F4434",
"%. c #3E4233",
"&. c #3E4038",
"*. c #3E403A",
"=. c #3F4139",
"-. c #42432D",
";. c #40412F",
":. c #43422F",
">. c #41482E",
",. c #424330",
"<. c #404631",
"1. c #404532",
"2. c #404533",
"3. c #414732",
"4. c #404335",
"5. c #414337",
"6. c #404435",
"7. c #404436",
"8. c #424636",
"9. c #434737",
"0. c #434434",
"q. c #434B30",
"w. c #434A31",
"e. c #414832",
"r. c #444B32",
"t. c #444A33",
"y. c #434935",
"u. c #434836",
"i. c #444936",
"p. c #444937",
"a. c #454B37",
"s. c #444936",
"d. c #43463B",
"f. c #43473B",
"g. c #44473B",
"h. c #45463C",
"j. c #44493A",
"k. c #45493C",
"l. c #464A3B",
"z. c #5C5C33",
"x. c #606037",
"c. c #606038",
"v. c #6A6A3A",
"b. c #464640",
"n. c #474941",
"m. c #CECE6D",
"M. c #CECE7C",
"N. c #D4D4A6",
"B. c #D4D4AC",
/* pixels */
"- . % y B y x y y 5 2 u ] o.x u - . o y x y x x x y 5 B ] _ u G ",
"x . % & - - y y 5 = * ..t.<.o.h y . O & - - y x u = : G / / h G ",
"x . % = - ; y y y = L u.r.<.] G y . O $ - - y y ; = * y ] ..o.&.",
"y . O = ; - y u y : / t.t.f.G J y . O & - - u x y : : : ;.4.] &.",
"y . X $ * : ..] y : / p.t.j.h G - . O & - - y y 2 : = = ,.4.L &.",
"- . X $ ; W u.] 5 = <.p.t.p.W o.- . O & - - 2 2 2 * = * ;.W L o.",
"y . + $ * = p.$.5 = <.g.t.7...&.2 . O & @ - - 2 y * = * W W L u ",
"o   . o o o % o o o @ o X o @ % o   . o o o o o o o o o X X o % ",
"- - * * * ; u 5 - ; 5 G y . o - - - - - - - - - - - 2 - * . o 2 ",
"y 2 # # * = p.7.y : / k.f.o o u y y % % % - - y ; * : : = o o G ",
"2 2 * % - * <.o.y = ..7.o.o o B x x * % - % - 2 ; * 5 * : o o G ",
"- y ; % - - 7.u - * L 7.$.o o u y x - * - % - - - * * ; W X o G ",
"x x - % - - &.2 - = L <./ X o u x x - * - - - 2 - * : * W X o G ",
"x x 2 - % - B 2 ; = = ] / X o u x x y ; - - - ; ; = : = L X o G ",
"l x - - % - y y ; = ; ] / X o u - - - - - - - - * * ; : W X o y ",
"o o o o o o o o X o o @ @ . . o o o o o o o o o X o o o @   . o ",
"- . X * - - - - - - - - : 5 - - - . X * 2 - - - - - 2 y : 5 - y ",
"y . X % - - 2 y ; = * : / / : u x . + # - % 2 y 5 : o.u./ L G &.",
"- . X % - - 2 2 ; = * : -.W = u 2 . + # - % y u ; : ] p./ I o.h ",
"- . O * - - y y ; * * = :.] = u y . @ # % = $.: 2 : W p.>.~ ] h ",
"- . X # - - - 2 ; * * = :.] : h - . o # ; W p.o.2 : ..p.>.W : h ",
"- . O $ % - - - - * = = :.W L h - . O $ * L p.o.5 = ..j.t./ o.o.",
"- . O $ % - - y y ; = = ;.] L u - . + = * W u.h ; = W j./ ..&.&.",
"o   . o o o o o o o o o X o o % o   . o o @ % o o o @ @ X o @ % ",
"y - - % - - - - - - * - * . o - - - - - * 5 u - - ; : G 5 . o - ",
"x y % # % - - x y : = * L o o x y y ; * * ] k.] 5 : 7.n.g.o o G ",
"y y * % - - - 2 y : 5 ; = o o B y x ; * - _ k.] y : 7.n.h.o o h ",
"- y - % - - - - ; = : u W X o h x x y - - : d.o.y : 7.n.h.o o h ",
"- - - o o o o - o % % % # . . - - - - @ o - y 2 - % # : ; . . - ",
"% g.b.b.b.b.9.X X g.b.b.b.h ,.% % g.b.b.b.b.g.X X g.b.n.b.h ,.% ",
"v.M.N.B.B.N.m.z.z.M.N.B.B.N.m.x.c.M.N.B.B.N.m.z.z.M.N.B.B.N.m.v.",
"% 9.h.h.h.h.9.X X 9.h.h.h.h ,.X X 9.h.h.h.h.9.X X 9.h.h.h.h ,.% "
};
