/* XPM */
static char *_fa624f665b34fb4ec6cfb4ab8674501VqnJdMjL1gilKvd9[] = {
/* columns rows colors chars-per-pixel */
"64 64 185 2 ",
"   c #14161A",
".  c #1D1F22",
"X  c #2E2E2C",
"o  c #362F27",
"O  c #3B2F25",
"+  c #332F2A",
"@  c #2F302C",
"#  c #363027",
"$  c #3F3227",
"%  c #33322D",
"&  c #3B342C",
"*  c #37392E",
"=  c #3C3A2E",
"-  c #2F2F30",
";  c #2F3030",
":  c #353533",
">  c #3A3632",
",  c #373833",
"<  c #3B3B34",
"1  c #383738",
"2  c #3C3C3B",
"3  c #41362C",
"4  c #413A2F",
"5  c #443D34",
"6  c #413F3A",
"7  c #3E4035",
"8  c #3F403B",
"9  c #424336",
"0  c #4F4535",
"q  c #43443C",
"w  c #4C443A",
"e  c #46483C",
"r  c #4A4B3D",
"t  c #514535",
"y  c #594333",
"u  c #524937",
"i  c #52473D",
"p  c #5C4739",
"a  c #534A3B",
"s  c #5B493C",
"d  c #4F513F",
"f  c #51513F",
"g  c #3C3E42",
"h  c #3F4040",
"j  c #444543",
"k  c #4B4743",
"l  c #474842",
"z  c #4B4B44",
"x  c #41454A",
"c  c #46484B",
"v  c #4C4C4A",
"b  c #524A44",
"n  c #514C4A",
"m  c #4E5143",
"M  c #4F504C",
"N  c #525544",
"B  c #565946",
"V  c #585B47",
"C  c #53554C",
"Z  c #56594B",
"A  c #5A5D4B",
"S  c #4C5157",
"D  c #545552",
"F  c #585755",
"G  c #575853",
"H  c #5A5C54",
"J  c #52575E",
"K  c #585758",
"L  c #56595E",
"P  c #5C5C5A",
"I  c #605F5E",
"U  c #5E614D",
"Y  c #5F6151",
"T  c #5F6057",
"R  c #5F6152",
"E  c #5F605B",
"W  c #60634E",
"Q  c #60644D",
"!  c #61654E",
"~  c #62654F",
"^  c #63664F",
"/  c #62654D",
"(  c #64674F",
")  c #61654E",
"_  c #66694F",
"`  c #616352",
"'  c #626551",
"]  c #636650",
"[  c #626553",
"{  c #646750",
"}  c #646653",
"|  c #616257",
" . c #636556",
".. c #656755",
"X. c #626453",
"o. c #656851",
"O. c #656852",
"+. c #676B53",
"@. c #676A50",
"#. c #666954",
"$. c #686C52",
"%. c #696D54",
"&. c #6A6D54",
"*. c #6B6F55",
"=. c #686C56",
"-. c #6B6F56",
";. c #696D55",
":. c #61625A",
">. c #636658",
",. c #63655A",
"<. c #666759",
"1. c #63635E",
"2. c #61625E",
"3. c #63645F",
"4. c #65665D",
"5. c #63645B",
"6. c #676A58",
"7. c #67695E",
"8. c #66695A",
"9. c #6A6E58",
"0. c #696D58",
"q. c #6A6C5B",
"w. c #6C7056",
"e. c #6C7157",
"r. c #6E7159",
"t. c #70745A",
"y. c #555960",
"u. c #5A5E63",
"i. c #605E60",
"p. c #5F6267",
"a. c #5C6168",
"s. c #636362",
"d. c #636463",
"f. c #656661",
"g. c #646462",
"h. c #666662",
"j. c #656663",
"k. c #666665",
"l. c #646463",
"z. c #676862",
"x. c #676862",
"c. c #686965",
"v. c #686866",
"b. c #6A6A66",
"n. c #6A6B64",
"m. c #696A63",
"M. c #61656A",
"N. c #65696E",
"B. c #686868",
"V. c #6C6C68",
"C. c #6A6A6A",
"Z. c #656B72",
"A. c #6A6E73",
"S. c #6D7175",
"D. c #6D737B",
"F. c #727476",
"G. c #72767B",
"H. c #767A7D",
"J. c #747A82",
"K. c #797E83",
"L. c #7D8186",
"P. c #7D838A",
"I. c #818386",
"U. c #81868C",
"Y. c #85898D",
"T. c #8B8C8D",
"R. c #858A92",
"E. c #898E95",
"W. c #8C9096",
"Q. c #8D9399",
"!. c #939595",
"~. c #92969B",
"^. c #95999E",
"/. c #98999A",
"(. c #979CA1",
"). c #9A9EA3",
"_. c #9CA0A6",
"`. c #9FA3A8",
"'. c #A3A6AB",
"]. c #A6A9AD",
"[. c #ABAEB2",
"{. c #AFB2B5",
"}. c #B1B4B7",
"|. c #B6B9BD",
" X c #B8BABE",
/* pixels */
"c j q 2 2 2 q q 2 8 l c l q c c c c l l q q j j l c c j c c c c c c v v c l c v c c c z v z c c c l l c c c l l l j l z v v v v ",
"v +.*.^ ^ ^ Q ^ U U U U A U ^ m l Z Y U ^ U A A H 3.3.T 1.f.H c c H c.7.z.X...A A Z A +.9.+.U c m ] ..{ &.*.^ A ^ A ^ +.*.w.+.v ",
"e +.*.*.*.^ ] ^ { ^ A Y A A Y r , Z | Y ^ A A { 1.z.V.c.d.f.:.l j | c.c.4...] V V A A ^ 8.+.U < e ] H Q ^ ^ U A ^ ( ^ { +.*.&.e ",
"9 ^ +.+.+.U A A U A Z H Y A A e % C H ` +.A A ] :.,.f.d.d.f.P 2 2 H C.c.4.,.| U ^ Q A ^ ,.^ V : e ` T A U ] V U U +.^ +.] *.&.e ",
"2 U 9.*.U A C Z Z B C Z C C H 9 % Z H A U H H H Z H P d.f.1.K 2 2 K s.s.1.4.H A Y | | ,.,.Y B % e A Z Z A Z B N N U Y Z Z A A 8 ",
"8 r N N m e 7 9 7 7 7 < , 7 l < : e q q q q q q 9 q l c c c c 2 8 c c c j q q 9 q l l z l e q : < e < < 9 < 7 < * 9 e < < 9 e 8 ",
"c 6 < > 3 & & & % : : : : , , 6 c 2 < , > , 1 , , , , , , 1 2 c c 2 , , , , , , > > > 1 , 1 1 c q , : % & o & & & & & % % & 2 c ",
"c e N m N m e q e e q q 9 e q 8 c 9 e e r e q l c e q l c c j c c l v v v l e e e e e e e e 9 q q e e e e 9 e e e e e e e e e c ",
"< N *.*.+.^ U B U ^ A B N A A < : m Q A U A Z A A Y ,.:.s.s.K 2 2 G d.d.f.,.` A A V V V V A N & < Z V V U U A A A ^ U Z B ` U < ",
"< V +.+.^ U U N A U A A N N V 7 @ B Q A H A A A A Y z.d.f.s.P 2 1 P d.d.f.T T Z Z B B B B Z Z % < A B V A B V A A Q V Z A ] ^ < ",
", B +.] U A Q Z Z B Z U N f V < % N Q U A U | ` 4.7.f.c.d.d.E 2 1 K s.d.f.s.s.H Z Z V V Z B B % < A A A A V B A U ^ Q +.] #.^ , ",
": N +.] ^ +.` C N B V U B N V 9 @ N U A A U T T s.f.f.C.c.d.s.2 1 K d.d.d.d.s.P H A A Z Z V Z % * A A A Z A V A Q +.+.*.^ ] V : ",
": N #.] U U Z C A B A A Z Z V 7 X m U A A A P H P d.d.C.C.C.d.2 , G d.d.d.f.1.P H H H Z Z Z Z % * A V Z A B Z A U #.+.#.] U B : ",
", N +.` Z N N C A A A A Z A V < X m Y V Z A P H P P d.C.c.d.s.2 , K s.s.f.1.P P H H Z Z Z Z B @ , V B V A N C Z Z A ` +.| | A , ",
", B +.T H N C C C B B U A A V < X z A B C Z P H P s.d.C.C.d.s.2 , K d.d.s.T K K K H Z Z Z Z B @ < Z B Z B B A A Z H U ] T :.V : ",
": B $.H Z B Z Z Z B Z A C N B 7 X r Z N m C G H P s.d.d.c.d.s.2 , K d.d.s.P P P H H H Z H Z Z % < H H A A U A A A | ` ` 1.4.A : ",
"< A $.H N Z N Z Z Z N Z B B A 7 X z H N C m G K P P d.d.d.d.P 1 : G P s.K G K K K H H Z Z Z B % < P F H A | H A U H U Y H :.U , ",
"< U *.T C C C C H H Z Y Z A H 8 X z K N C C G K K P s.s.d.s.P 1 : D K K K K G K G G H Z Z Z B % < E K Z H T H N Z :.A A H | U 2 ",
"2 H *.H C C C C C A H Y H Z :.q X v K N C Z M G K P K P 1.P K 1 : D K G G F G D G F H Z Z Z C % < K G Z H G C G Z H Z A Z H A < ",
"< C *.H m Z H H K H H X.K H 3.q @ m K H K C C K P E G G K P K 1 : D K G D D D G F K H K K H C X < C D H H H G F H G C C K T Z < ",
", l N C z m M M M M M Z D M M 2 % e l l l l c v C M l q l v v 1 : c c c c c l c v v v v v v z % , l c c c v c l z v l v z v l , ",
"> # & > > & & & & & & & : % % : > % % X X % : : : % % @ X % % 1 1 % % : - X ; : % : : : : % % , : % % @ % % # + # # o + % + # > ",
"a a a r w u u u a w a u w a k v v z z z l r w l l l k c k b c z v k l l c c c c l l l r r c c z v z l l r u u 0 0 0 0 w r a a a ",
"r.r.r.t.r.e.9.9.=.9.9.8.8.9.q.q.q.q.r.*.9.*.9.8.9.q.q.7.m.c.m.m.m.q.m.m.m.m.m.q.q.q.r.r.q.q.r.7.m.q.q.*.$.*.e.r.#.=.9.*.r.r.r.r.",
"r.r.r.r.r.r.6.9.$.8.8.,.,.7.7.m.m.m.9.6.4.8.6.4.6.7.7.f.f.f.f.f.d.c.z.c.v.d.z.z.z.f.m.7.7.q.q.f.f.4.7.*.6.e.*.*.r.=.#.9.q.r.r.r.",
"q.q.9.9.9.9.,.8.6.7.8.,.,.,.4.f.c.c.7.8.1.:.,.1.,.4.f.f.4.s.f.f.f.d.z.d.d.d.f.f.f.d.f.4.4.f.z.s.f.s.1.6.,.9.9.9.9.9.q.8.9.q.9.q.",
"4.7.8.:.,.8.:.,.:.,.4.3.I H K P f.s.1.3.P K P P 1.1.f.s.P P 1.P s.f.f.d.d.f.s.1.s.s.s.1.E P P s.s.s.s.,.3.8.9.,.| 8.:.H :.7.9.8.",
"| :.| K H H P H H H P :.P K F K P P P P K G K K P P P K G K K K P P P P s.s.P P P P P K K K K P P P P P P :.X.H K | H H K | :.| ",
"q < > > 4 > > = > < , , > = > 6 w 5 < < < > , , 1 < , < < 1 1 j j 1 , 1 , , , , < < , < < < 1 j 2 < < > < > 5 5 5 4 4 4 4 > < q ",
"2 N ^ U U U U B B A N m r N r , < 9 N B Z A Z C D G K P P G 2 1 1 2 D G D C v v Z V A Z A A e 1 < B ^ ^ ^ ^ ^ ^ ^ ^ U ^ U A r < ",
"7 +.t.*.*.w.w.+.^ ^ A A A A U 9 % N | ] *.m.4.1.4.d.C.V.d.s.C 1 < C s.d.C.f.H P | { #.] X...V & e *.r.r.r.w.w.w.w.t.w.w.r.*.^ < ",
"2 Q *.*.] { *.+.U N Z A C Z U < % N K X.9.4.E P K K 1.C.d.d.F 1 1 K d.d.d.s.:.E H | #.] :.,.B & 9 #.*.*.9.*.*.w.w.w.&.+.*.*.+.9 ",
"9 ] *.9.+.] ^ U A N Z Y Z H Y q : C H X.8.1.K F G F K f.C.d.G 1 2 K d.s.P E T P H T ,.| :.3.A : q 9.$.r.9.9.*.e.r.t.r.*.9.w.*.q ",
"9 d r r e q < 9 e q q r q q e 9 < e q q e l 8 9 q q j c v v z q j v c c c c l q 9 q q q q l r < 9 N m m m N r d N N N N N N N 9 ",
"k 5 & : & O $ & & & = & > 1 2 j l 2 1 > = = , > > 1 , , , < 2 c c 2 , , , , < , , , > > 1 < 6 c j 2 < > 3 3 3 3 = $ 3 = > > 5 k ",
"t 9 e e 9 e e e e 9 e r e e e q j q e q e l e q l l c v v v c c c l v v v c l e e e e e e e 9 j q e r z e r r m m f f d z r 9 t ",
"= N A A A U U B A U ^ U U ` ^ 9 & N Y A A H Z A P 1.d.s.d.d.K 8 c P V.V.1.1.H U A A ] U ` | d : < A ^ ^ U A A ^ +.+.+.] U ] B = ",
": N A N B A B Z Z Z A Y H | { l & :.:.Z Z G Z Y G F K G D G D : , G 1.s.P G C N Z Z A A H H N % < A A Q A N H U U U U U A U V , ",
", N A N V A A U Z A U #.,.` { l : H ,.A Z G Y A C.L.K.K.H.K.L.H.K.L.L.K.K.K.L.K.N Z A A H H N % < A A U A Z H ^ U U A A A Z N : ",
", V U Z A Z A Y Z H ] $.f.Y ] l : H ,.+.| G H C D.W.R.R.E.R.E.R.Q.E.R.R.R.P.Q.Q.C C A A K G z @ < A A ^ U A H U A A A H A A N % ",
", U ] U U Y ] ] Y X.] 8.4.H | q % H ,...] Z H M S.R.K.J.P.P.U.Y.U.R.P.L.L.J.R.R.C C A A K C r X < A U U B A H U Z A A A H B N , ",
", U #.#.#.U ..#.X.8.#.#.:.Y | q : Z ,.Y A Z H C F.W.L.P.R.E.E.Q.Q.Q.R.R.P.K.E.W.C Z A A K C e X , ` Y Y U H T ] U A Z A Y H A < ",
"< ^ 6.8.w.#.8.#.#...] #.| H | q ; H 4.A B A H C H.^.R.Y.U.E.~._.).^.E.U.R.R.Q.^.C H ` A P Z z X 2 8.] 8.{ ..4.+.+...] ] ` T A < ",
"< +.9.8.9.6...$.#.{ ] X.| H | q : C :.Y Z Z H C L._.W.U.F.Y.'.[.[.'.Y.S.U.W.(.).G H | U 1.1.C % q 6.{ 8.+.+.:.*.] 8.] { #.X.U < ",
"5 } 7...9.8.8.#.X.] ] | H H H 2 ; C Y H H K H D Y.'.^.Y.A.~.}.|. X}.^.A.U.^._.'.F H ` Q 3.d.K & e #.X.8.#.#.| 9.X.X.X.#.8.,.| < ",
"< Y 8...*.#.X.X.` ` H Y Z K H 2 : C H H H G G v Y.`.Q.G.V.Y.[.[.{.[.T.C.F.~._.].K K | ` 3.d.P : q +.X.8.#.#.X.*.#.X.X.#.8.,.T 1 ",
", Z | ] *.{ | ` T Y H ` Z H Z 2 : C P H H K K M Y._.E.N.!.H.^.)._.^.F.T.N.E.(.'.K P T ,.f.d.T : < ` Y ,..._ ] *.$.,.,.$.8.| A 1 ",
", A T ` +.^ Y | Y A H H H Z A 2 @ C H K K K P M U.).U.A.T.u.A.H.K.S.L T.A.U.~.'.K P P :.1.f.Y : 7 | U ,.,.{ | $.8.,.X.#.,.,.H 1 ",
": C Z Z A Z Z H A H H H H G Z 2 X C K K K K P M H.Q.J.M./.F.G.L.I.H.S.!.N.K.E.^.K P P P P :.H % 8 ,.` ,.,.` H X.X.:.H Y ,.T Z , ",
": C C N A Z H A A H H H Z G Z 2 X C K K G K 1.D S.R.D.S.F.H.H.M.s.F.H.S.Z.G.P.W.G K K K K P C @ < H Z A H H H T Y P T Y X.H N : ",
": v C C Z Z G A A H Z K Z H Z 8 X M K P K P 1.D A.U.D.D.a.S c     x J u.D.D.L.Y.M F K G K K C % < H Z C C H H T Y H H Y Z Z N : ",
": m Z G C Z G H H H Z K H K H 2 X M P K K K E D N.P.D.G.J.N.y.. . L Z.Z.D.D.K.P.S G G G F K C @ < H G G G H H K H C C Z Z Z N , ",
"% v C C F G G K Z G G G G G H 2 X M F D G G K c N.U.G.K.D.S.Z.g g A.S.D.J.J.R.Y.v D D G D G M @ 2 K G D G G G K G M M Z Z N v : ",
": l z M C D C C C D C D C C D 2 X v D D D D D c p.J.A.A.A.A.A.Z.N.S.A.S.S.A.G.K.c v v D M C v % 2 C M M M C C D C v z C C C c : ",
"1 q 8 q q l q j l l l l l l c 1 : l c c c c c c 2 1 1 2 2 6 2 , , < , , : , , 1 8 2 2 h j l l : 1 j q q 8 j q j q q q l q q q 1 ",
"c 9 5 5 q 6 5 w j j q j j j j j c q j j j j j j g 2 j j j j l c c j q 2 2 j j 2 2 2 2 2 8 j j c j 8 2 2 1 2 q q 5 5 q 5 6 5 6 c ",
"b i c b b b p p b v b s a b n v v v v v v v v v v v b v v v v v n v v v v v v c v b v c c v v v v v v c c c v v b b i y i v b s ",
"a a a a a a a a a a a a a a a a a a a a r k k a a a a a a k c a a c c c k c l c k a b c l a z b z z z r k a a a a a a a a a a a ",
"] { { ^ ] ^ ] { ] ] ] ^ ] ] Y T ` ` ] ^ ] Y ] ] ] ] { ] ] H | | H K H P K K Y ] ` T | | ` ] ] ] ] ] ^ ^ ^ ^ ^ { ^ ] ] ^ ] ^ ] ] ",
"*.*.*.*.&.*.*.*.*.*.$.$.$.#.8.4.,.,...#.#.,.#.,.8.$.#.,.,.1.,.,.4.i.1.1.I P 3.,.4.7.,.4.4.,.,.,.8.$.$.$.*.*.*.*.*.*.*.*.&.*.*.*.",
"r.r.r.r.w.*.9.9.r.w.7.9.9.6.7.z.m.m.7.7.7.4.7.4.7.q.7.4.7.f.s.z.m.s.f.f.s.s.f.m.n.c.m.m.d.m.m.7.7.q.r.9.q.r.*.*.w.*.r.r.w.r.r.r.",
"q.q.r.*.$.9.6.7.8.&.:.,.,.,.4.4.f.,.6.4.,.:.4.4.4.8.4.s.4.s.s.1.4.s.f.f.s.P s.f.f.c.m.c.d.m.m.f.1.,.9.8.8.8.$.#.#.$.8.6.*.9.7.9.",
"X...9.6...` X.,.X.] G Z Z | :.T T U ` H H ` ..6.X.H P P 4.1.P 1.,.s.f.4.P H 1.s.4.c.m.7.7.9.#.H G Y #.8.,.,.#.#.] +.| H Y | ,.8.",
"m z m z e e r z e z z z e z N m z z z e e e N C N m m v m m m C C C A A C m C H C C Z Z Z C N m l z m m N N N C m m m z z z C Z "
};
