/* XPM */
static char *WEST_resized1713887536[] = {
/* columns rows colors chars-per-pixel */
"64 64 197 2 ",
"   c #393939",
".  c #373B2F",
"X  c gray12",
"o  c #373737",
"O  c gray23",
"+  c #353535",
"@  c gray20",
"#  c gray22",
"$  c #3A3A3A",
"%  c #1B1B1B",
"&  c #313131",
"*  c #373F27",
"=  c #3F472B",
"-  c #383C30",
";  c #33352F",
":  c #393D31",
">  c gray17",
",  c #2F2F2F",
"<  c #343434",
"1  c #353731",
"2  c gray16",
"3  c #252525",
"4  c #434B2F",
"5  c gray24",
"6  c gray21",
"7  c #35392D",
"8  c #3D4133",
"9  c #373933",
"0  c #31332D",
"q  c #41492D",
"w  c #383A34",
"e  c #3B4329",
"r  c #3F3F3F",
"t  c #3F4335",
"y  c #414537",
"u  c #373D2B",
"i  c #33372B",
"p  c #3B3F33",
"a  c #45493B",
"s  c #3C4032",
"d  c #3A3E31",
"f  c #393B35",
"g  c #323232",
"h  c #363832",
"j  c #353B29",
"k  c #3C3C3C",
"l  c #3D452A",
"z  c #343630",
"x  c #3B3F32",
"c  c #3C3E37",
"v  c #454D31",
"b  c #383E2C",
"n  c #394128",
"m  c #414141",
"M  c #232323",
"N  c #3B3D36",
"B  c #3A3C36",
"V  c #3E4039",
"C  c #3B3F31",
"Z  c #3A3C35",
"A  c #434739",
"S  c #3D432E",
"D  c #1D1D1D",
"F  c #191919",
"G  c #464A3C",
"H  c #474F33",
"J  c #373B2D",
"K  c #434343",
"L  c #3D4135",
"P  c #3E3E3E",
"I  c #2F3327",
"U  c #313529",
"Y  c #2F312B",
"T  c #333927",
"R  c #393D30",
"E  c gray14",
"W  c #3B412D",
"Q  c #49432D",
"!  c #3E4430",
"~  c #353D25",
"^  c #44483A",
"/  c #444A35",
"(  c #131313",
")  c gray27",
"_  c gray18",
"`  c gray15",
"'  c #393D2F",
"]  c #3D3F38",
"[  c #383024",
"{  c #3D4134",
"}  c #372F23",
"|  c #39351E",
" . c #333B23",
".. c gray13",
"X. c #42443D",
"o. c #101010",
"O. c #3C422E",
"+. c gray9",
"@. c gray28",
"#. c #393125",
"$. c #313725",
"%. c #34361F",
"&. c #3B371F",
"*. c #3F4336",
"=. c #38362A",
"-. c #48422C",
";. c gray11",
":. c #3E4234",
">. c #40423B",
",. c #373821",
"<. c #35392C",
"1. c #474C37",
"2. c #313921",
"3. c gray19",
"4. c #040404",
"5. c #2C2C2C",
"6. c #282828",
"7. c #424638",
"8. c #3F472D",
"9. c #494D3F",
"0. c #0B0B0B",
"q. c #444B30",
"w. c #494E39",
"e. c #383220",
"r. c #4A4D3F",
"t. c #3A382C",
"y. c #444444",
"u. c #202020",
"i. c #2F371F",
"p. c #464841",
"a. c #424833",
"s. c #313527",
"d. c #404631",
"f. c #363428",
"g. c #484B3D",
"h. c #44321C",
"j. c #494949",
"k. c #383826",
"l. c #3D3921",
"z. c gray25",
"x. c #474B3D",
"c. c #40351E",
"v. c #3A3A28",
"b. c #2E3B24",
"n. c #36322C",
"m. c #42442B",
"M. c #3D3528",
"N. c #393B24",
"B. c #403A22",
"V. c #2C2E27",
"C. c #3F413A",
"Z. c #4B4B4B",
"A. c #313A2F",
"S. c #46472E",
"D. c #484F33",
"F. c #353327",
"G. c #4C4F41",
"H. c #33352E",
"J. c #2B3D27",
"K. c #293925",
"L. c #404438",
"P. c #34382C",
"I. c #4A5135",
"U. c #423620",
"Y. c #383A22",
"T. c #2E3029",
"R. c gray29",
"E. c gray30",
"W. c #453826",
"Q. c #483B29",
"!. c #2A3323",
"~. c #4A442E",
"^. c #4D4731",
"/. c #273523",
"(. c #302C26",
"). c #4A4C45",
"_. c #48361D",
"`. c #463E30",
"'. c #494F33",
"]. c #333321",
"[. c #4E4832",
"{. c #4A4B44",
"}. c #2F382D",
"|. c #3F372B",
" X c #3E3F25",
".X c #2D3123",
"XX c #2F3A29",
"oX c #463420",
"OX c #3F4532",
"+X c #3B432A",
"@X c #2F3523",
"#X c #453F2B",
"$X c #44463F",
"%X c #333125",
"&X c #4E5042",
"*X c #2D3125",
"=X c #483523",
/* pixels */
"o 3.E D > g $ r r r r O O O O                                   o 3.E D > g $ r r r r O O O O                                   ",
"O $ 2 X > d u # * # & ;   6 :   # . . : . 6 e ^ q q = y $ 5 s : $ P 2 X > [ =.+ #   , ; $ r   5 m 7 . L * - $ m S = = 8 : k 8 r ",
"O   2 X > |.h.O @ # @ . $ # . o # . u : u ; 7 1.4 4 = y : r 8 B $ O 2 X > #.oX1 @ $ g z         m . . : * o f K = = = 8 : r 8 O ",
"5   2 X > t.B.# @ # 1 ; O + #   # . * p W 7 = p.4 4 = a * s N O $ Z 2 X > #.h.1 o $ < ; $ + $ o P 1 d p * o p O = S = y : 8 c *.",
"r w 2 X > v. X# + # 1 - r o w ] - O u - ! j 4 {.v 4 q A * y 5 O O w 2 X > [ c.J.@ $ & i o + w O - 1 - b * w - k R y = y p t 5 5 ",
"r   2 X > u k.# # + @ 1 c   9 c @ # . . e . q g.v 4 4 y * m 8 { O   2 X > } U.; o & @ & N 5 # w @ - - * i + b # C v = 8 : r 8 t ",
"O d 2 % > =.Y.O o * @ ; $ @ : Z # $ - . 4 s v v = 4 ) g.# c K O O s 2 % > [ Q., @ i @ 0   >.9 P   9 : . p - * o n Q m :.O.n K B ",
"O # 2 % > =.l.  6 j @ 1 V f N p 9 f : . = L 4 r.= 4 p.a   O K O O   2 % > } =X@ + 0 @ & O O.o O o . : . : - * o W Q V a 8 e K O ",
"    2 % > F.N.9 g ~ 0 z :.S S { + + p . 4 n / ).q 4 ^ a $ c K 5     2 % > } W.1 @ j & o h J w m + 1 : . : * * $ l -.X.y * e m O ",
"5 f 2 % > $.| - @ J . 4 w.8 n t   w . . = *.H G.= 4 a G.f x y : 6 f 2 % > #.%.i + @ _ h $ N < N O 7 d - * u * o = ^.c t * e 8 t ",
"O + 2 % > I &.+ 1 7 . 4 9.C ' t 6 . . . q t v G = 4 w.g.* = { 5 @ < 2 % > #.2.o @ @ & @ o < # +   , - - * u * o e [.= t * ! y 5 ",
"$ o 2 % > ,.| - # u i = 1.7.:.t 6 . . . q y H G q q ^ A * y 7.d o o 2 % > [ U.# Y i @ & o 5 9   # . . . * - * o e ~.e { b ! t x ",
"O $ 2 % > ~ | M.. i ; q a G q *.  . j . 4 t / @.4 4 ^ A * v t Z O   2 % > e._.6 0 _ Y @ 9 $ j 5   9 . . u - * o n -.e s : l 8 f ",
"$ Z 2 % > t.| . 9 j & l 1.a 4 t # 9 * . q t G ) q q X.*.- I.K $ O Z 2 % > #.l.+ @ T.0 @ <   7 O # 9 7 b : - * o n -.l s : n 8 O ",
"+ H.` F E h i z @ i & J N N ' z 0 < i ; J w Z   s.J $ z @ C h + < H.` F E n.f., & Y & @ & h g & g ; i i z z i & s.t.<.h z J h o ",
"X D o.0.+.;...X X X X X X X X % % X X X X X X % ( % X X M E M M X D o.0.+.;...X X X X X X X X % % X X X X X X % ( % X X M E M M ",
"r k k m $ O O                                     + 6.D ` , o 5 r k k m $ O O                                     + 6.D ` , o 5 ",
"  9 o 6 . j | . u ~ & S 9.A = >.# z p . q b G E.a / < X 3 o B O < B # O @ @ | o 0 0 1 o & , # $ 6 0 . 7 r L * o l = < X 3 o B 5 ",
"  9 . o 7 I ,.1 u * & 8.^ a q c 6 7 p . q e a.Z.A G @ X 3 O $ $ o B : p , Y f.}.7 , @ o ; 0 6   # . . . : : * o e e @ X 3 O $ O ",
"O + w # 7 T  .7 & j 1 W a.a d.y + - p . 4 O.4 j.y a @ X 3 $ - d o   B B @ <  .K., @ , @ @ @ < 8 . . 7 . L # * o R * @ X 3 $ f 5 ",
"  w o   j $.i.K.@ Y ; n 4 a = K   - : . q ] q ) t W & X 3 O c k o f $ k I 1 l./.@ & i 1 , 1 w $ @ 7 . . : # T o C S & X 3 O c 5 ",
"# + w o 9 k.$.; + & @ 9 q A ! 5 9 . - . 4 s v A d.x & X 3 O c k # o $ 6 @ . 2.+ @ , @ U 6 h 9 # 9 . . . f u * + S S & X 3 O d 5 ",
"& # - 6 #   U I @ & & # 8.A x # , . . . e . 4 K / 8 < % 3 O d 5 & f #   o o  .& + > , ; # w ; . , . . - . . j # l = < % 3 O 8 O ",
"  # O   o j 1 T + 0 @ # C.a R o + 7 . . e . q K q t @ % 3   x :   9 $ + o o u + + Y , ; # + 1   @ . . . u o j o e = @ % 3   8 O ",
"  # O o o & $.b.+ & , + z.t .   < g 7 - ! - v X.q e @ % 3 o s O   # #   + 6 2.A.+ , ; 1 9 + + $ @ g 7 .   d u o e q @ % 3 o d r ",
"O o 5   o @ U 7 & , & < K { R # + + * p L T 4 7.4 e g % 3 + C : O   # $ o o ~ i 3., & @ @ ; 7 # + + ~ . 5 * * o S d.g % 3 + - r ",
"$ + 5 O o ; 1 . ; , ; & 5 8 1 w , o * : b u W A q n , % 3 + s f $   $ $ o o . w 1 , @ o @ o *   o o * . m b * o . = , % 3 + s r ",
"$ o $ k o : + P.@ *X0 @ P $ . # # 9 * p * . j ! 4 = & % 3 + d O   #   O o $ 0 6 1 0 @ + < 9 @ o # . * . 5 n * O e = & % 3 + s r ",
"# o $ k o + o w + U 1 9 p $ . # - . . : . @ - X.q = < % 3 + 8 O # o o   + # 1 # o & Y + o ; 6 w . . . . w w * 5 = = < % 3 + : O ",
"6 6 O o o + 1 & + T & + p $     ; . . : . 6 e V 4 = @ % 3 < x $ 6 + # 6 @ 6 9 T.+ @ & 0   h # w ; . . . . 9 u k = = @ % 3 < . O ",
", + + + @ g , , & , & @ ; + < & 2 0 ; z i ; <.Z ' J 5.% X _ Z + , + @ @ & 0 & V.& & , 0 < g @ 0 2 0 ; ; ; @ z < J J 5.% X _ w + ",
"M M % % D X X % % X X X X X X % ( % X X X X X X X X F 4.o.F X u.M M % % D X X % % X X X X X X % ( % X X X X X X X X F 4.o.F X u.",
"o 3...;.> g $ r r r 5 O O O O                       O m P       o 3...;.> g $ r r r 5 O O O O                       O m P       ",
"O $ 2 X > } &.9 ; ; & ; $ $   O o 7 . . * + j 5 S = = 8 : $ d O $ - 2 X > @Xi.o 9 . , 0   + - 5 6 . . p # t t N q = e t $ k s r ",
"O # 2 X > e.$.U @ & @ 7   $ 1 O 6 i j . * # * ] = = l 8 u O : O O   2 X > k.%.1 . i , 0 # o : f   . . : O t / >.= = n x $ r 8 r ",
"O w 2 X > e.i.; & & @ ; o @ + f o 1 * - * w *   l l e y * x : 5 O # 2 X > P.&.o o I , 0 Z + - N # . - p Z t H a = l e : O 8 x r ",
"$ 1 2 X > } 2.@ & @ 1 ; $ <.h + . 9 * u * - . o q = l y * R : 5 O 1 2 X > j Y.o + i , 0 c < - N . . d b C y D.A = = n * V 8 - r ",
"  @ 2 X > } 2.@ @ _ @ 1 # o w 6 + . u u * - * # m.S.O.t * - C V   1 2 X > j %.1 9 i & 1 N f ] p @ 7 L b b 7.1.^ = = = n { ] s V ",
"6 h 2 % > [ u + o 0 & 1 # N : O # 9 . . u - * o `.-.N C u n : $ O - 2 % > 7  .& ;  .; z y S W d   - p . 8.8 H w.= = = e OXt x 5 ",
"$ # 2 % > [ M.1 @ , & @ $ j f $ 9 . . . - . * o -.#Xc t - n : O O 9 2 % > =.| & 9 $.7 q a t e :.6 g : . e 8 H a = = = e *.8 d O ",
"O 6 2 % > [ %.; & & & & 6 z h   & . . . - . * # -.Q 8 8 - b x >.  + 2 % > 7  .1 9 7 7 q.9.8 J *.& + d u S W / / q q q s - 8 d ] ",
"$ 9 2 % > } ,.. ; & g ; $   < N # . . . * - * o Q Q d 8 u ] s p o < 2 % > 7 %.. 9 . 7 4 w.A y { o B - d v L.H ) 4 = l C - 5 s t ",
"$ @ 2 % > #.,.& 1 , h & 6 < o o + 0 . . * . * o Q Q O.x * V s k 6 < 2 % > =.&.o - . 7 l D.A y t o 7 j - = L.v $X4 l = 8 : V 8 5 ",
"$ 6 2 % > e.N.F.9 U @ @ o f   o 6 1 . . * : * o S.Q s e * ! 8 x # + 2 % > =.c.# . u . e H y V 8 : . * 7 q s H &X4 l q ! w y t t ",
"  # 2 % > &.h.I & _ 0 0   0 . 5   1 . . b p * o = Q 8 e * ! x B 6 # 2 % > ~ %.# j 7 7 q.H *.s t h . - : = s v R.= l = y $ ^ 8 V ",
"o @ 2 % > [ B.U + Y & @ < i ; 5 # o : . p : * o q m.V e b p t $ # 9 2 % > v.&.o @ I . q.I.t 8 8 + 7 - b = C v @.= = = y $ a y 5 ",
"< 0 ` F E n.t.0 < 0 & ; & , ; + H.z ; ; h z i & I 0 + <.z h h o @ 0 ` F E z 7 & , Y ; C C w h g & ; ; i ' 1 C   s.<.J Z < Z h o ",
"X D o.0.+.;...X X X X X X X X % % X X X X X X % ( % X X M E M M X D o.0.+.;...X X X X X X X X % % X X X X X X % ( % X X M E M M ",
"r k k m $ O O                                     + 6.D ` , o 5 r k k m $ O O                                     + 6.D ` , o 5 ",
"O B $ + @ I ,.; 0 i o # @ ,   O # z : . * . * o = = < X 3 o B 5 + f # O 7 + j o u * 7 q.@.y * # + d d . 4 y 9.@.4 q < X 3 o O O ",
"O f d   & (.f.b.i 0 @ @ ; 0 # $ 6 B . . - - * o e l @ X 3 O $ $ o w R O 7 ; . . 7 T . '.) r.+X  $ ; : . 4 y G j.a ^ @ X 3 O $ O ",
"O 6 f o @ %X~ .X@ 0 @ o < + 6 $ + - p . : 9 * o n e @ X 3 $ Z $   o f $ . 1 T . & ; . v @.r.4 c . 9 p . H { G Z.A G @ X 3 $ N O ",
"$ f o 5 i ].~ !.+ & 1 o , 1 h k   w ] . : 9 T o R l & X 3 O c 5 6 w   P T 1 u J.@ @ . v ) r.q - # . p . v X.G E.y x.& X 3 O c 8 ",
"  6 w 6 + j i U + < + 1 @ 0 9 $ 1 . f - d w b # W S & X 3 O N k # + $   9 - ; + h @ ; = ) a 4 s # L p . = m a R.y x.& X 3 O x c ",
"&   w # o + U I + + , Y 1 7 0 # , . . : . 9 $   e 4 < % 3 O x c & $ O 5 o   U & + @ , q ) y 4 k @ p p . v y.a j.a x.< % 3 O s f ",
"o #   + o < 0  .+ i , 1 @ @ 1 # $ . 7 : u . - O l = @ % 3   s 8   #   O o $ i 6 o 1 & v y.>.q m + 9 5 . q c a @.a G @ % 3   8 x ",
"o o   $ # o T XX+ & + o @ & + + o g 7 : - * u # O.= @ % 3 o C O   o   $ # O 7 A.6 0 @ v y.P a.z.$ $ V . l x 1.p.a :.@ % 3 o - O ",
"O o o # # # U i & , @ 6 < 0 1 # + + * : w j ~ o l q g % 3 + d 8 O   O 5 + : . o & @ @ ^ y.] X.5 $ B * . 8.* 4 a / W g % 3 + R k ",
"$ + #   # + + 7 h , <   < @ p   < $ * p O b n # e = , % 3 + R f $   $ 5 o   . # h @ + m A L V r o J * . e u = G y R , % 3 + 8 r ",
"$ o   o o o + 7 1 i @ + + o + O $ o * :   b * $ e q & % 3 + s O   #   $ + O 7 6 1 . o ] t o *.O # 9 * . e . H 4 4 = & % 3 + - O ",
"# #   # o o @ + # 7 ; 6 O $ o c - . . L d 6 z.O = 4 < % 3 + 8 O # w o P . O o w # 9 ; C.:.$ x $ - . . . 8 P H a 4 4 < % 3 + - O ",
"+ +   + # + i & @ @ & ;     $ o ; . . : . # P 5 = 4 @ % 3 < x 5 6 6 $   .   o *X+ o & 9 L O - # B 7 . : C   4 t 4 4 @ % 3 < : O ",
", < @ < < g & , g & , ; < < < g 2 0 ; z ; < o o J ' 5.% X _ Z + , < + + ; < @ V.g & g 6 ; + ; & , 0 ; z 1 @ C w ' ' 5.% X _ w + ",
"X X X X X X X % % X X X X X X % ( % X X X X X X X X F 4.+.F X u.X X X X X X X % % X X X X X X % ( % X X X X X X X X F 4.+.F X u."
};
