/* XPM */
static char *d2fa6f87451f42418e9ecd625586be23zHXGBxhutzHGWjwB[] = {
/* columns rows colors chars-per-pixel */
"32 32 140 2 ",
"   c #1E1E1D",
".  c #252525",
"X  c #2A2B26",
"o  c #2C2C2A",
"O  c #312D25",
"+  c #2F3027",
"@  c #2E302A",
"#  c #353627",
"$  c #393627",
"%  c #33352D",
"&  c #39362A",
"*  c #363B2D",
"=  c #393C2E",
"-  c #353533",
";  c #373933",
":  c #3A3D32",
">  c #3B3F33",
",  c #393D30",
"<  c #383934",
"1  c #383935",
"2  c #3A3834",
"3  c #383A34",
"4  c #393B34",
"5  c #383A35",
"6  c #393B35",
"7  c #3B3B35",
"8  c #383836",
"9  c #383936",
"0  c #383837",
"q  c #383937",
"w  c #393937",
"e  c #393A36",
"r  c #393A37",
"t  c #3A3C34",
"y  c #3A3C35",
"u  c #3B3F34",
"i  c #3B3E35",
"p  c #3A3C36",
"a  c #3B3D36",
"s  c #3A3C37",
"d  c #3C3F35",
"f  c #3C3D37",
"g  c #3D3F37",
"h  c #393B34",
"j  c gray22",
"k  c #383938",
"l  c #393938",
"z  c #393A38",
"x  c #3A3B38",
"c  c #3B3B39",
"v  c #3A3A3A",
"b  c #3B3B3A",
"n  c #3A3A3B",
"m  c gray23",
"M  c #3A3C38",
"N  c #3B3D39",
"B  c #3B3C3A",
"V  c #3C3C39",
"C  c #3C3E38",
"Z  c #3D3F38",
"A  c #3C3E39",
"S  c #3D3F39",
"D  c #3C3C3B",
"F  c #3D3E3A",
"G  c #3E3F3D",
"H  c #3A3A39",
"J  c #3A402D",
"K  c #3B412D",
"L  c #3B422D",
"P  c #3A402F",
"I  c #3B422E",
"U  c #3E402C",
"Y  c #3D412E",
"T  c #3C422E",
"R  c #3C422F",
"E  c #3E432F",
"W  c #3D442F",
"Q  c #3E452E",
"!  c #3F452E",
"~  c #3E442F",
"^  c #3E452F",
"/  c #3D432E",
"(  c #3C4031",
")  c #3D4231",
"_  c #3E4331",
"`  c #3C4033",
"'  c #3D4133",
"]  c #3E4233",
"[  c #3E4430",
"{  c #3F4431",
"}  c #3F4432",
"|  c #3F4532",
" . c #3F4433",
".. c #3C4034",
"X. c #3D4035",
"o. c #3E4135",
"O. c #3E4235",
"+. c #3F4237",
"@. c #3F4434",
"#. c #3E4233",
"$. c #3E4038",
"%. c #3E4039",
"&. c #3E403A",
"*. c #3F4139",
"=. c #40412F",
"-. c #41432E",
";. c #43422F",
":. c #41482E",
">. c #424330",
",. c #404631",
"<. c #404731",
"1. c #404533",
"2. c #414732",
"3. c #414733",
"4. c #404335",
"5. c #414337",
"6. c #404435",
"7. c #404436",
"8. c #424636",
"9. c #434737",
"0. c #414634",
"q. c #434B30",
"w. c #434A31",
"e. c #424832",
"r. c #444B32",
"t. c #434935",
"y. c #434836",
"u. c #444A34",
"i. c #444936",
"p. c #444937",
"a. c #454B37",
"s. c #444935",
"d. c #43463B",
"f. c #44473B",
"g. c #43463C",
"h. c #464B38",
"j. c #45493A",
"k. c #45493C",
"l. c #45493B",
"z. c #474941",
/* pixels */
"- . % 7 M 7 l 7 7 3 < t ' X.l t - . o 7 l 7 l l l 7 3 M ' , t F ",
"l . # & - - 7 7 3 = *  .q.<.X.f 7 . O & - - 7 l t = = F ~ ~ f F ",
"l . # = - ; 7 7 7 = J y.r.<.' F 7 . O $ - - l 7 ; = * 7 '  .X.$.",
"7 . O = ; - 7 t 7 , ~ y.q.f.F G 7 . O & - - t l 7 , , , -.4.' $.",
"7 . o & % =  .' 7 , ~ j.q.j.f F - . O & - - 7 7 < , = = >.4.J $.",
"- . o & ; R y.' 3 = <.p.q.p.~ X.- . O & - - < < < * = * -.R J X.",
"0 . o & * = p.@.3 =  .f.q.7. .$.- . O & % - - < 7 * = * R R J t ",
"o   . o o o % @ o o @ o X o @ % o   . o o o o o o o o o X o o % ",
"- - % % % ; t 3 - ; 3 F 7 . o - - - - - - - - - - - < - * . o < ",
"7 < # # * = p.7.7 , ~ k.d.o o t 7 7 % % % - - 7 ; * , , = o o F ",
"< < * % - * <.X.7 =  .7.X.o o M l l % % - % - < ; * 3 * , o o F ",
"- 7 ; % - - 7.t - * J 7.@.o o t 7 l - % - % - - - * * ; R X o F ",
"l l - % - - $.7 - = J <.~ X o t l l - * - - - < - * , * R X o F ",
"l l < - % - M < ; = = ' ~ X o t l l 7 ; - - - ; ; = , = J X o F ",
"j l - - % - 7 7 ; = ; ' ~ X o t - - - - - - - - * * ; , R X o 7 ",
"o o o o o o o o X o o @ @ . . o o o o o o o o o X o o o @   . o ",
"- . X % - - - - - - - - , 3 - - - . X % < - - - - - < 7 , 3 - 7 ",
"7 . o % - - < 7 ; = * , ~ ~ , t l . + # - % < 7 3 , X.y.~ J F $.",
"- . o % - - ; < ; = * , -.R = t < . + * - % 7 , ; = ' p.~ L X.f ",
"- . O % - - 3 7 ; * * = ;.' = t 7 . @ # % = @., < , R p.:.~ ' f ",
"- . o # - - - < ; * * = >.' , f - . o # ; R p.X.< =  .p.:.R , f ",
"- . O $ % - - 0 - * = = >.R J f - . O & * J p.X.3 =  .j.q.~ X.X.",
"- . O $ % - - 7 7 ; = = >.R J t - . + = % R y.f ; = R j.~  .$.$.",
"o   . o o o o o o o o o X o o % o   . o o @ % o o o @ @ X o @ % ",
"7 - - % - - - - - - % - * . o - - - - - % 3 t - - ; , F 3 . o - ",
"l 7 % # % - - l < , = * J o o l 7 7 ; * % ' k.' 3 , 7.z.f.o o F ",
"7 7 % % - - - < 7 , 3 ; = o o M 7 l ; % - ` k.' 7 , 7.z.g.o o f ",
"- 7 - % - - - - ; * , t R X o t 7 l 7 - - , d.X.7 , 7.z.f.o o t ",
"l l - % - - - - - * * = R X o t l l 7 ; - f g.$.l , R j.7.X o t ",
"l l - - - - - 7 7 , , , R X o t l l l < - M $.F 3 * J q. .X o t ",
"- - - - - - l 7 ; , 7 F  .X o t < l 7 - - 7 t 7 ; * f 7.<.X o 7 ",
"o o o o o o o o . o o o o   . o o o o X o o o o . o o @ @   . o "
};
