/* XPM */
static char *_8b015cfcc534f6faf63abf4bd8682b0qcDd5rSu3kKRbH0Y[] = {
/* columns rows colors chars-per-pixel */
"64 64 165 2 ",
"   c #2E2625",
".  c #2C2B2A",
"X  c #392525",
"o  c #362E27",
"O  c #362E28",
"+  c #3B2C29",
"@  c #36312B",
"#  c #3B332C",
"$  c #373431",
"%  c #3D3630",
"&  c #3E3934",
"*  c #442C2B",
"=  c #4A2B2A",
"-  c #522D2D",
";  c #44362A",
":  c #49362B",
">  c #46392D",
",  c #4A3B2D",
"<  c #503F2F",
"1  c #433632",
"2  c #453C33",
"3  c #4C3D31",
"4  c #413B38",
"5  c #513E32",
"6  c #623737",
"7  c #653838",
"8  c #693B3A",
"9  c #54402F",
"0  c #4E4136",
"q  c #4D433A",
"w  c #544233",
"e  c #594635",
"r  c #5C4837",
"t  c #54463A",
"y  c #5A4739",
"u  c #55493D",
"i  c #5D4B3B",
"p  c #5F503F",
"a  c #624E3C",
"s  c #694F3E",
"d  c #65503E",
"f  c #6A533F",
"g  c #504745",
"h  c #5B4740",
"j  c #554B42",
"k  c #5D4D41",
"l  c #5E5144",
"z  c #5D5249",
"x  c #614F40",
"c  c #624D49",
"v  c #645242",
"b  c #6C5643",
"n  c #6E5844",
"m  c #665449",
"M  c #675A4D",
"N  c #6D5A4A",
"B  c #705741",
"V  c #725A45",
"C  c #795E47",
"Z  c #745E49",
"A  c #685D53",
"S  c #705D50",
"D  c #7B6047",
"F  c #76614D",
"G  c #7B624C",
"H  c #6E635A",
"J  c #766251",
"K  c #7B6552",
"L  c #7D6955",
"P  c #7D6A5A",
"I  c #81664E",
"U  c #86694F",
"Y  c #816751",
"T  c #846A53",
"R  c #8A6E54",
"E  c #836D5A",
"W  c #896E59",
"Q  c #8E7156",
"!  c #86715C",
"~  c #8C725B",
"^  c #917257",
"/  c #92755B",
"(  c #95795E",
")  c #9A7C5F",
"_  c #867261",
"`  c #8B7562",
"'  c #8C7963",
"]  c #8E7C6B",
"[  c #907761",
"{  c #937C63",
"}  c #9A7E63",
"|  c #947E69",
" . c #987F69",
".. c #968166",
"X. c #9B8166",
"o. c #95826B",
"O. c #9B846B",
"+. c #9D8A6F",
"@. c #978571",
"#. c #9C8672",
"$. c #9F8870",
"%. c #9C8973",
"&. c #9D8D7B",
"*. c #A08567",
"=. c #A28466",
"-. c #A48569",
";. c #A2876F",
":. c #A68A6A",
">. c #A4886D",
",. c #AA8C6D",
"<. c #A98E6E",
"1. c #AB8F6E",
"2. c #AB906F",
"3. c #AC916F",
"4. c #A38C73",
"5. c #A38A74",
"6. c #A78D74",
"7. c #AA8F70",
"8. c #AA8E71",
"9. c #A38E7A",
"0. c #A79077",
"q. c #AB9173",
"w. c #AB9273",
"e. c #AD9271",
"r. c #AE9374",
"t. c #AE9474",
"y. c #A4917B",
"u. c #AE9578",
"i. c #AB947C",
"p. c #AE987E",
"a. c #B19475",
"s. c #B29777",
"d. c #B49877",
"f. c #B39879",
"g. c #B49B7B",
"h. c #B19B7E",
"j. c #B49B7D",
"k. c #B29D7E",
"l. c #B59F7F",
"z. c #A09181",
"x. c #A89380",
"c. c #AF9982",
"v. c #AC9D8C",
"b. c #B29C83",
"n. c #B49D81",
"m. c #B89E80",
"M. c #B39E89",
"N. c #BBA182",
"B. c #BAA385",
"V. c #B6A38A",
"C. c #B7A38C",
"Z. c #B7A58D",
"A. c #BBA688",
"S. c #B9A78F",
"D. c #BBA88F",
"F. c #BCA98F",
"G. c #B6A592",
"H. c #B8A793",
"J. c #BBAA92",
"K. c #BCAA91",
"L. c #B8AA96",
"P. c #BFAE97",
"I. c #BBAB99",
"U. c #C2AC8F",
"Y. c #C0B2A2",
/* pixels */
"a b Z F F F F F F F F F F F F b d n K L K G F K L K K K K L Z v v n K K K L L L K K K F F F n v d V F F F F F F Z Z Z Z Z F n d ",
"a ) s.q.t.s.e.7.q.e.f.s.e.q.l.{ d +.V.S.F.n.h.V.S.Z.K.D.C.P.L.J d %.D.K.D.S.Z.J.J.S.A.f.d.N.k.N V ,.s.3.2.r.f.s.:.*.,.,.:.g.h.F ",
"e R ~ R ~ ( ~ R T T / ( ~ T { ..a ! | O.>.{ ~ {  .{ ;.;.o.5.V.L e { %.6.O.| { O.%.O.} ( ( -.f.Z a / / R T R ( ( T G R ~ R } u.L ",
", B V n V I V B B B I T G V Z T 5 b K ~ { G Z K E W { { ~ {  .N 3 N ~ } ~ K K ! ~ W T T T / } b > b C V V V T T V V V D D I / Z ",
"> d n n V D V V n V C I D V Z G , v J ! ~ D F K K L ~ ~ E ` { n > v T { T F F L W T T I Y R / d ; f V B n V Y G V n V Z Z G R Z ",
"> 5 w w w e w e w w e a r w r b > 0 i b b r r a x x b b b V J v > w v Z x i i v v x a i i a V i ; w w w w w a i w w w w w r b b ",
"e 5 3 3 3 , , , , , , w w 3 w e e w 3 w 5 > , 5 w 3 w w 5 w e i y w w w w 0 w w w w w w 3 5 w r w 3 , 3 5 5 w w , 3 3 5 5 3 w e ",
"i G { { { { ( ( ( { { ..{ ....F i N E | @.{ { o.@.o.o.o.' ' _ v i J @.&.&.%.%.%.%.o...o.{ { ! d a Q { { ....O...{ { { { { ..~ d ",
"a ) s.e.s.s.,.,.,.:.,.e.e.e.N.+.r Y { 4.p.>.>.6.y.4.0.5.....p.L w ~ i.V.V.b.b.b.b.%.4.7.*.>.t.F B :.s.e.e.e.s.s.:.:.:.*...7.B.L ",
"5 U / / ( / ^ ^ R R R ^ / ^ X...w b J T ~ T I T W W W T K K { F > N T ( { ( { { [ L T R I I Q n e R / / R ^ / / T R R G D T :.L ",
"> V T Q ^ R U I I U U R ^ R Q ~ 3 v F F Y D D K L K K J F F T Z > v K T ~ ~ ! ~ ! F G I G V G d > V I R G U U T G G I V V G ( G ",
"; b I R Q U G V D I U R Q I T T > v F F F V C F K K J F Z F L Z ; v K K ~ ~ W T T F Z G G V D a : B I R G U I I D G D V b V Q F ",
"; d G R Q R C B V V D U R G G D > v F F F V V F J F F Z Z Z K Z ; v J K ! ~ T K K F Z D D V D d : B I R G I G G Z D C B b V R D ",
"; a G R ~ R V B B V V I R C V Z > v F Z Z V V F K J F J F Z K Z ; v J K ! R K K K Z Z D C V C d ; B I T C G C G V V V B n V T F ",
"; a G U R U V B B B V G T V V Z > v F Z Z V V F L K F F F J L Z ; v J J R T T T K Z Z Z V b D d ; f G D B C V C V V V B V V T Z ",
"; a C G R G V V V G D C I V V Z > x F Z Z V V Z F F F F F F K Z ; v F F T R T T K Z V Z Z V C d ; f V V B C V V V V B b V V T Z ",
"; a C G I D B V V G D V G V V Z > a F Z Z V V Z F Z F F F J K Z ; v F F T W T K K Z V V C V C d ; b V V V C V V V V B n V V T Z ",
"; a Z D G V f V V V V V G V V Z > a Z Z Z V V Z F Z Z F J J K Z ; v F Z L T K K F Z V V V V D d ; f V V V V V V V V B B V V T V ",
"; a Z C D V n V V b V V G V V Z > a Z Z V V V Z Z Z Z F F F K V ; v F Z K F F F Z V V V V V F d > b B B B V V V V V V n V V T V ",
"; a Z C D V V b n b V Z G Z Z Z > a F Z V V V Z Z Z Z F F F K V ; v F F J F Z Z Z V V Z V V C d > b V V V V V V V V V V V V G b ",
"; w a a a a i i i i a a d a d b > w v d d a a v v d a v v v b b ; w v v v v v v a d a i a a v a ; r a a i i a a a i i i i a b b ",
"> > > > > > > > > ; ; > > > > w 3 > > > > > > > 3 > > > > 3 3 w > > > 3 3 3 , > > > > > > ; > w > > > > > > > > > > > > > > 5 y ",
"r t t i i i r r r w w y r t t r i i d v v v v v v v v v v v v v a x i v v v v v v v v i i i a v d i a v b v b b v v v v v v a i ",
"V v i i i i i i i i i k Z V n b x F Z T K R J T Z T P L K K F K T K L T W L K E R ! ~ W R T R T F Z V Z G F G T T K G K K F Z Z ",
"V 0 . . . . . . . . . . a V b b t b j n l Z v V k Z A b l b k b G Z Z Z K Z Z F D C Y I G G G V b , : ; > > , 9 w > , 5 w > > a ",
"V t % % % % % % % # # % d V b b u b k n k n v b k N M b v v l v D Z Z Z J Z Z Z Z V D G D Z V V b < > ; : > > 9 < > > , < > > a ",
"n b b b b b b b v v v b b b b b b b b b b b b n b V F n n n n n V N N V Z V V V V b V V V V n b v r e e e e e a e 9 e e e r e f ",
"a i i r r i i i i r i i i i e r i a a a a i i a a v b a a a a a a a a i d a i a a a a i i i i i i a a r r r i a a i i i a i a a ",
", w i i i i p v d d d i i r w 3 3 w r r i i k v v v v m v l t , > 0 k v m m l v v v v i k i w > > y i i a i i i i p a i i i w > ",
"y ( f.l.g.l.h.l.m.l.f.j.7.>.k._ r ( 7.q.p.c.b.G.H.G.G.C.C.G.v.m y ] v.L.L.H.C.C.V.b.b.h.f.t.4.r i >.l.h.t.t.q.7.7.q.t.t.t.u.O.b ",
"e ) X.} } ,.*.X.*.} { ..~ ! r.4.i ~ } o.o.{ o.9.x.%.@.#.5.9.I.P i  .y.y.5.%.o.O.4.;.O.X.} { t.b a *.,.O./ / ( / ~ ( } *.( ( ,.F ",
"3 Z K K Y ( W R R R T T F F ~ { 0 N T T K K E ] o._ E _ _ ` 9.J 3 S ` E P P K P { ! R T T T / a w R / R F C D Z V G R Q G D R V ",
"> b F F K / R W T T K G Z Z R ~ 3 v K K J J P ` ] E P P P P  .Z 3 m P K J J J K ~ R T G G G ~ a w F ~ T Z Z Z V V C T T C Z Y n ",
"> w i r i b d d a x i i r r v F 3 w i i i i l m M v v m m v N v 3 0 k k k k k k v a i r y i b i > r d a w w w w w w e e w w d v ",
"y 3 > > > 3 , , , , 3 3 3 , 3 e w > > > > > 3 3 3 3 3 3 3 3 3 y r 3 3 3 , 3 3 , 3 , 3 3 , > 3 y w , 3 , > > > > ; > , , > > , e ",
"i L ..{ ..O...O...| o.O.O.O.%.K i G o.O.@.@.%.&.z.&.&.&.&.&.] v i Z ` | | o.@.o.o.o.o...O.%.' v d ' %.O.o...{ { { { ..o...O.' v ",
"a -.e.,.7.7.>.7.O.} >.r.r.f.U.y.a *.f.f.h.p.c.c.M.M.V.M.b.M.Y.P i W o.O.| o.#...{ O.O...4.f.F.F C s.l.g.s.e.7.7.,.,.7.e.,.s.A.E ",
"w ~ Q R R R T R K F K ~ / ! ....r T ( ( { { ` _ ]  .O.O.{ ` x.P 5 V E L N Z J N n F Z b F R >.Z s } X.} / / / / ^ ^ Q R R ( 7.T ",
"> Y I I I T D Y F Z F R R G R ! w F ! ! ` ~ E P ! ` o.O.~ E { F 5 b T Z 0 0 u 3 3 0 3 ; r Z / b e ~ ( / ^ ^ ~ ~ R T G C D T } G ",
"> G G G D D Z F F Z F T T F T W w Z R R ~ ! T P P _ {  .E L ` Z 5 b E q 4 q $ 4 q @ # 2 # b ! v w R ^ ~ Q Q Q Q R C V V V V ~ F ",
"; Z D D Z Z V Z Z Z F K T Z K T w n T G R T L K E ` ` { E L ~ N 3 N E 2 y c O 4 m : 1 g : v T v w T R Q R ^ ^ Q I V V B n V T Z ",
"; b V V V V V Z Z Z F F G V K T 3 b F D G D F K P E ! [ T K W N , N E % * 8 + + 1 = = % ; d T v w G R Q Q ^ ~ R I V B B b V I V ",
"; d V V n B V Z Z Z Z G G Z F G 3 b D D F F F K L L R ! K K W V > b E 2 t M > t z > 3 z 2 d T a 3 Y R Q R Q R R G V V V b n G V ",
"; a V V B V B V D C C D G Z F G , b F F G Z F K L K K R K F T V > v E 3 l J 3 j A > 3 A > a I a , G Y T R R R T D V V V b B G n ",
"; a V V B V B V Z F D F G V G G , b D D F Z Z J K K G R K Z T V > b E 3 m J 2 j H > q A > a T a > G G G T Q T G V V V V B V T V ",
"; a V V n n B n V Z Z D F V G G , b D V Z Z Z J J F F K K Z T b > b E 3 l J > j H > 0 M > a G i > D G G T R T D V B B V B B T Z ",
"; a V V b n B b V Z Z Z D V G G > v D V Z V Z J K F Z K K Z Y b > N E 2 u N > u A > 2 M > i G i > D G G I R T V V B B B b B G n ",
"; a V B n V B n V Z V V V V G D > d Z V Z Z Z F J F Z F F Z K b > n T 1 5 j # 5 h o : i # i G i > Z D Z G T I V B B B V V V G b ",
"; a V V b n V V V F V V V V F D > d V V Z Z V F J Z Z F F Z T n > b F # - 5   * 7   X 6 O i G i > Z D Z C I G n n b V V B V G n ",
"; a B b b b V V V D V V B B F D > d V V F Z B Z F Z Z Z F F K b > N K % 0 x @ 2 x O @ k # r D i > V C V V I D n B V V V B V G b ",
"; a V n b b B V V V B V V V F G , d V V Z V n Z F Z V V F F K v , b T u # 2 & # # % O # > d G i 3 Z Z V V G G V V V V B n B F b ",
"; a V V n n n V V V B V V V G F > d Z V Z V n V F Z V V F F K v > b K N a i v k i i w w d B D i , V Z V V F G V V V B n n n F b ",
"; a V n V n V V b B V Z V V F D > a V V Z V b Z F Z V B Z Z K v > b F Z V V Z N b b a d b B G i > B Z Z V D D V V V n B V V D b ",
"; i n b V V V V b n V Z V V F D > a V V Z V n Z J F V V Z Z G b > b F F F Z Z Z Z V b b V V G i > b V V V V Z V V n n V V V G b ",
"; , e w e e e e e e i i i i b V > w i i a a i a v v a i a i b d ; t v v v a v a i r i r i i b i ; e r i r r i r e e r i r r v d ",
"w > > > > > > > > > , , , , 3 w w > > > > > > , 3 , , > , , , w w , > 3 3 > 3 3 > > , , , > , w , > > , > , > > > > , > , > , e ",
"r e e e w w w e e w w e e w e r r w e w < , w w w w w w w e w e r w w w e e e w e e e e w w w e e e r w w w w w w w e w e e e e ",
"i e e i i e e e a e w w w w i d a i a i e w w i a e e e r a a i i e w r a v a i a i i a i w w r e w i r e w w e w i i y w r i r ",
"I b v n n b v b G C B b f v b G D b n b B b n G G V n Z I I C V V Z V V C Y G Z V V Z T R D V b f f f d f i a b b C G G b b b V ",
"T Z Z C F G Z C I I D D F G D Y G D D G D D G T T K K T / ~ T F I T G Y T R R K F G T / / R I D V V Z Z D V Z F G Y R R D Z Z F ",
"F V V V V V V V D Z V V Z Z Z Z Z V V F V V Z K J J G G R R G Z G I F F G T K F Z Z D T T I D C V V n V V n V Z Z C C F V n V Z ",
"Z V V V V V V V V V B V V V V Z V V V Z V V Z G J J F Z G I F Z D G F Z G I F F V V Z I G D C C V V b b V b B V V V V V B b V V ",
"V V V V V V n n V B V V V V V Z V V V Z B V V F F F Z C F D F Z Z F G F G Y Z Z V V V D C C V V V V b b V b b V V V V b B b B V ",
"a a a a a a a a a a a a a a a v v a a v a a a v b v v d v d d a a v b b b V b v a a a v a a a a a i i a a i a a a a a i a i a a "
};
